<svg width="245" height="248" viewBox="0 0 245 248" fill="none" xmlns="http://www.w3.org/2000/svg">
<rect x="115.012" y="219.436" width="12.7826" height="27.6956" rx="5" fill="#1CA8B4"/>
<rect x="27.6958" y="117.174" width="12.7826" height="27.6956" rx="5" transform="rotate(90 27.6958 117.174)" fill="#1CA8B4"/>
<rect x="127.813" y="27.6953" width="12.7826" height="27.6956" rx="5" transform="rotate(180 127.813 27.6953)" fill="#1CA8B4"/>
<rect x="144.743" y="218.012" width="12.7826" height="27.6956" rx="5" transform="rotate(-22.9045 144.743 218.012)" fill="#1CA8B4"/>
<rect x="173.114" y="205.949" width="12.7826" height="27.6956" rx="5" transform="rotate(-40.0284 173.114 205.949)" fill="#1CA8B4"/>
<rect x="196.086" y="186.447" width="12.7826" height="27.6956" rx="5" transform="rotate(-59.2628 196.086 186.447)" fill="#1CA8B4"/>
<rect x="210.911" y="159.305" width="12.7826" height="27.6956" rx="5" transform="rotate(-74.2695 210.911 159.305)" fill="#1CA8B4"/>
<rect x="215.868" y="100.545" width="12.7826" height="27.6956" rx="5" transform="rotate(-112.904 215.868 100.545)" fill="#1CA8B4"/>
<rect x="203.848" y="72.2168" width="12.7826" height="27.6956" rx="5" transform="rotate(-130.028 203.848 72.2168)" fill="#1CA8B4"/>
<rect x="184.278" y="49.2324" width="12.7826" height="27.6956" rx="5" transform="rotate(-149.263 184.278 49.2324)" fill="#1CA8B4"/>
<rect x="157.18" y="34.3848" width="12.7826" height="27.6956" rx="5" transform="rotate(-164.27 157.18 34.3848)" fill="#1CA8B4"/>
<rect x="27.6411" y="147" width="12.7826" height="27.6956" rx="5" transform="rotate(67.0955 27.6411 147)" fill="#1CA8B4"/>
<rect x="39.7153" y="175.328" width="12.7826" height="27.6956" rx="5" transform="rotate(49.9716 39.7153 175.328)" fill="#1CA8B4"/>
<rect x="59.2114" y="198.314" width="12.7826" height="27.6956" rx="5" transform="rotate(30.7372 59.2114 198.314)" fill="#1CA8B4"/>
<rect x="86.3638" y="213.16" width="12.7826" height="27.6956" rx="5" transform="rotate(15.7305 86.3638 213.16)" fill="#1CA8B4"/>
<rect x="98.3911" y="29.7734" width="12.7826" height="27.6956" rx="5" transform="rotate(157.096 98.3911 29.7734)" fill="#1CA8B4"/>
<rect x="70.0942" y="41.8359" width="12.7826" height="27.6956" rx="5" transform="rotate(139.972 70.0942 41.8359)" fill="#1CA8B4"/>
<rect x="47.0781" y="61.3379" width="12.7826" height="27.6956" rx="5" transform="rotate(120.737 47.0781 61.3379)" fill="#1CA8B4"/>
<rect x="32.2231" y="88.4805" width="12.7826" height="27.6956" rx="5" transform="rotate(105.73 32.2231 88.4805)" fill="#1CA8B4"/>
<rect x="217.309" y="129.957" width="12.7826" height="27.6956" rx="5" transform="rotate(-90 217.309 129.957)" fill="#1CA8B4"/>
<path d="M77.0205 140V110.75L79.5855 113.405H70.3605V108.5H82.8705V140H77.0205ZM102.259 140.45C99.7692 140.45 97.5192 139.82 95.5092 138.56C93.5292 137.3 91.9692 135.47 90.8292 133.07C89.6892 130.64 89.1192 127.7 89.1192 124.25C89.1192 120.8 89.6892 117.875 90.8292 115.475C91.9692 113.045 93.5292 111.2 95.5092 109.94C97.5192 108.68 99.7692 108.05 102.259 108.05C104.779 108.05 107.029 108.68 109.009 109.94C110.989 111.2 112.549 113.045 113.689 115.475C114.859 117.875 115.444 120.8 115.444 124.25C115.444 127.7 114.859 130.64 113.689 133.07C112.549 135.47 110.989 137.3 109.009 138.56C107.029 139.82 104.779 140.45 102.259 140.45ZM102.259 135.365C103.729 135.365 105.004 134.975 106.084 134.195C107.164 133.385 108.004 132.155 108.604 130.505C109.234 128.855 109.549 126.77 109.549 124.25C109.549 121.7 109.234 119.615 108.604 117.995C108.004 116.345 107.164 115.13 106.084 114.35C105.004 113.54 103.729 113.135 102.259 113.135C100.849 113.135 99.5892 113.54 98.4792 114.35C97.3992 115.13 96.5442 116.345 95.9142 117.995C95.3142 119.615 95.0142 121.7 95.0142 124.25C95.0142 126.77 95.3142 128.855 95.9142 130.505C96.5442 132.155 97.3992 133.385 98.4792 134.195C99.5892 134.975 100.849 135.365 102.259 135.365ZM132.537 140.45C130.047 140.45 127.797 139.82 125.787 138.56C123.807 137.3 122.247 135.47 121.107 133.07C119.967 130.64 119.397 127.7 119.397 124.25C119.397 120.8 119.967 117.875 121.107 115.475C122.247 113.045 123.807 111.2 125.787 109.94C127.797 108.68 130.047 108.05 132.537 108.05C135.057 108.05 137.307 108.68 139.287 109.94C141.267 111.2 142.827 113.045 143.967 115.475C145.137 117.875 145.722 120.8 145.722 124.25C145.722 127.7 145.137 130.64 143.967 133.07C142.827 135.47 141.267 137.3 139.287 138.56C137.307 139.82 135.057 140.45 132.537 140.45ZM132.537 135.365C134.007 135.365 135.282 134.975 136.362 134.195C137.442 133.385 138.282 132.155 138.882 130.505C139.512 128.855 139.827 126.77 139.827 124.25C139.827 121.7 139.512 119.615 138.882 117.995C138.282 116.345 137.442 115.13 136.362 114.35C135.282 113.54 134.007 113.135 132.537 113.135C131.127 113.135 129.867 113.54 128.757 114.35C127.677 115.13 126.822 116.345 126.192 117.995C125.592 119.615 125.292 121.7 125.292 124.25C125.292 126.77 125.592 128.855 126.192 130.505C126.822 132.155 127.677 133.385 128.757 134.195C129.867 134.975 131.127 135.365 132.537 135.365ZM154.086 140L175.596 108.5H180.006L158.496 140H154.086ZM156.696 125.465C155.226 125.465 153.921 125.105 152.781 124.385C151.641 123.665 150.756 122.66 150.126 121.37C149.496 120.08 149.181 118.565 149.181 116.825C149.181 115.085 149.496 113.57 150.126 112.28C150.756 110.99 151.641 109.985 152.781 109.265C153.921 108.545 155.226 108.185 156.696 108.185C158.226 108.185 159.546 108.545 160.656 109.265C161.796 109.985 162.681 110.99 163.311 112.28C163.941 113.57 164.256 115.085 164.256 116.825C164.256 118.565 163.941 120.08 163.311 121.37C162.681 122.66 161.796 123.665 160.656 124.385C159.546 125.105 158.226 125.465 156.696 125.465ZM156.741 122.315C157.941 122.315 158.871 121.85 159.531 120.92C160.221 119.96 160.566 118.595 160.566 116.825C160.566 115.055 160.221 113.705 159.531 112.775C158.871 111.815 157.941 111.335 156.741 111.335C155.541 111.335 154.581 111.815 153.861 112.775C153.171 113.735 152.826 115.085 152.826 116.825C152.826 118.565 153.171 119.915 153.861 120.875C154.581 121.835 155.541 122.315 156.741 122.315ZM177.351 140.315C175.881 140.315 174.576 139.955 173.436 139.235C172.296 138.515 171.411 137.51 170.781 136.22C170.151 134.93 169.836 133.415 169.836 131.675C169.836 129.935 170.151 128.42 170.781 127.13C171.411 125.84 172.296 124.835 173.436 124.115C174.576 123.395 175.881 123.035 177.351 123.035C178.881 123.035 180.201 123.395 181.311 124.115C182.451 124.835 183.336 125.84 183.966 127.13C184.596 128.42 184.911 129.935 184.911 131.675C184.911 133.415 184.596 134.93 183.966 136.22C183.336 137.51 182.451 138.515 181.311 139.235C180.201 139.955 178.881 140.315 177.351 140.315ZM177.351 137.165C178.551 137.165 179.496 136.685 180.186 135.725C180.876 134.765 181.221 133.415 181.221 131.675C181.221 129.935 180.876 128.585 180.186 127.625C179.496 126.665 178.551 126.185 177.351 126.185C176.181 126.185 175.236 126.665 174.516 127.625C173.826 128.555 173.481 129.905 173.481 131.675C173.481 133.445 173.826 134.81 174.516 135.77C175.236 136.7 176.181 137.165 177.351 137.165Z" fill="#1CA8B4"/>
</svg>
