<svg width="245" height="248" viewBox="0 0 245 248" fill="none" xmlns="http://www.w3.org/2000/svg">
<rect x="115.012" y="219.436" width="12.7826" height="27.6956" rx="5" fill="#1CA8B4"/>
<rect x="27.6958" y="117.174" width="12.7826" height="27.6956" rx="5" transform="rotate(90 27.6958 117.174)" fill="#AAAAAA"/>
<rect x="127.813" y="27.6953" width="12.7826" height="27.6956" rx="5" transform="rotate(180 127.813 27.6953)" fill="#1CA8B4"/>
<rect x="144.743" y="218.012" width="12.7826" height="27.6956" rx="5" transform="rotate(-22.9045 144.743 218.012)" fill="#1CA8B4"/>
<rect x="173.114" y="205.949" width="12.7826" height="27.6956" rx="5" transform="rotate(-40.0284 173.114 205.949)" fill="#1CA8B4"/>
<rect x="196.086" y="186.447" width="12.7826" height="27.6956" rx="5" transform="rotate(-59.2628 196.086 186.447)" fill="#1CA8B4"/>
<rect x="210.911" y="159.305" width="12.7826" height="27.6956" rx="5" transform="rotate(-74.2695 210.911 159.305)" fill="#1CA8B4"/>
<rect x="215.868" y="100.545" width="12.7826" height="27.6956" rx="5" transform="rotate(-112.904 215.868 100.545)" fill="#1CA8B4"/>
<rect x="203.848" y="72.2168" width="12.7826" height="27.6956" rx="5" transform="rotate(-130.028 203.848 72.2168)" fill="#1CA8B4"/>
<rect x="184.278" y="49.2324" width="12.7826" height="27.6956" rx="5" transform="rotate(-149.263 184.278 49.2324)" fill="#1CA8B4"/>
<rect x="157.18" y="34.3848" width="12.7826" height="27.6956" rx="5" transform="rotate(-164.27 157.18 34.3848)" fill="#1CA8B4"/>
<rect x="27.6411" y="147" width="12.7826" height="27.6956" rx="5" transform="rotate(67.0955 27.6411 147)" fill="#1CA8B4"/>
<rect x="39.7153" y="175.328" width="12.7826" height="27.6956" rx="5" transform="rotate(49.9716 39.7153 175.328)" fill="#1CA8B4"/>
<rect x="59.2114" y="198.314" width="12.7826" height="27.6956" rx="5" transform="rotate(30.7372 59.2114 198.314)" fill="#1CA8B4"/>
<rect x="86.3638" y="213.16" width="12.7826" height="27.6956" rx="5" transform="rotate(15.7305 86.3638 213.16)" fill="#1CA8B4"/>
<rect x="98.3911" y="29.7734" width="12.7826" height="27.6956" rx="5" transform="rotate(157.096 98.3911 29.7734)" fill="#AAAAAA"/>
<rect x="70.0942" y="41.8359" width="12.7826" height="27.6956" rx="5" transform="rotate(139.972 70.0942 41.8359)" fill="#AAAAAA"/>
<rect x="47.0781" y="61.3379" width="12.7826" height="27.6956" rx="5" transform="rotate(120.737 47.0781 61.3379)" fill="#AAAAAA"/>
<rect x="32.2231" y="88.4805" width="12.7826" height="27.6956" rx="5" transform="rotate(105.73 32.2231 88.4805)" fill="#AAAAAA"/>
<rect x="217.309" y="129.957" width="12.7826" height="27.6956" rx="5" transform="rotate(-90 217.309 129.957)" fill="#1CA8B4"/>
<path d="M77.2455 140L90.2505 110.84L91.7805 113.45H73.9155L76.7055 110.615V118.805H71.2605V108.5H95.7405V112.415L83.5005 140H77.2455ZM109.007 140.45C106.787 140.45 104.612 140.135 102.482 139.505C100.382 138.845 98.6124 137.945 97.1724 136.805L99.6474 132.26C100.787 133.19 102.167 133.94 103.787 134.51C105.437 135.08 107.147 135.365 108.917 135.365C110.987 135.365 112.607 134.93 113.777 134.06C114.977 133.19 115.577 132.02 115.577 130.55C115.577 129.56 115.322 128.69 114.812 127.94C114.332 127.19 113.462 126.62 112.202 126.23C110.972 125.84 109.277 125.645 107.117 125.645H99.5124L101.132 108.5H119.627V113.405H103.292L106.352 110.615L105.137 123.44L102.077 120.695H108.422C111.542 120.695 114.047 121.115 115.937 121.955C117.857 122.765 119.252 123.905 120.122 125.375C121.022 126.815 121.472 128.465 121.472 130.325C121.472 132.155 121.022 133.835 120.122 135.365C119.222 136.895 117.842 138.125 115.982 139.055C114.152 139.985 111.827 140.45 109.007 140.45ZM141.693 140L163.203 108.5H167.613L146.103 140H141.693ZM144.303 125.465C142.833 125.465 141.528 125.105 140.388 124.385C139.248 123.665 138.363 122.66 137.733 121.37C137.103 120.08 136.788 118.565 136.788 116.825C136.788 115.085 137.103 113.57 137.733 112.28C138.363 110.99 139.248 109.985 140.388 109.265C141.528 108.545 142.833 108.185 144.303 108.185C145.833 108.185 147.153 108.545 148.263 109.265C149.403 109.985 150.288 110.99 150.918 112.28C151.548 113.57 151.863 115.085 151.863 116.825C151.863 118.565 151.548 120.08 150.918 121.37C150.288 122.66 149.403 123.665 148.263 124.385C147.153 125.105 145.833 125.465 144.303 125.465ZM144.348 122.315C145.548 122.315 146.478 121.85 147.138 120.92C147.828 119.96 148.173 118.595 148.173 116.825C148.173 115.055 147.828 113.705 147.138 112.775C146.478 111.815 145.548 111.335 144.348 111.335C143.148 111.335 142.188 111.815 141.468 112.775C140.778 113.735 140.433 115.085 140.433 116.825C140.433 118.565 140.778 119.915 141.468 120.875C142.188 121.835 143.148 122.315 144.348 122.315ZM164.958 140.315C163.488 140.315 162.183 139.955 161.043 139.235C159.903 138.515 159.018 137.51 158.388 136.22C157.758 134.93 157.443 133.415 157.443 131.675C157.443 129.935 157.758 128.42 158.388 127.13C159.018 125.84 159.903 124.835 161.043 124.115C162.183 123.395 163.488 123.035 164.958 123.035C166.488 123.035 167.808 123.395 168.918 124.115C170.058 124.835 170.943 125.84 171.573 127.13C172.203 128.42 172.518 129.935 172.518 131.675C172.518 133.415 172.203 134.93 171.573 136.22C170.943 137.51 170.058 138.515 168.918 139.235C167.808 139.955 166.488 140.315 164.958 140.315ZM164.958 137.165C166.158 137.165 167.103 136.685 167.793 135.725C168.483 134.765 168.828 133.415 168.828 131.675C168.828 129.935 168.483 128.585 167.793 127.625C167.103 126.665 166.158 126.185 164.958 126.185C163.788 126.185 162.843 126.665 162.123 127.625C161.433 128.555 161.088 129.905 161.088 131.675C161.088 133.445 161.433 134.81 162.123 135.77C162.843 136.7 163.788 137.165 164.958 137.165Z" fill="#1CA8B4"/>
</svg>
