<svg width="245" height="248" viewBox="0 0 245 248" fill="none" xmlns="http://www.w3.org/2000/svg">
<rect x="115.012" y="219.436" width="12.7826" height="27.6956" rx="5" fill="#AAAAAA"/>
<rect x="27.6958" y="117.174" width="12.7826" height="27.6956" rx="5" transform="rotate(90 27.6958 117.174)" fill="#AAAAAA"/>
<rect x="127.813" y="27.6953" width="12.7826" height="27.6956" rx="5" transform="rotate(180 127.813 27.6953)" fill="#1CA8B4"/>
<rect x="144.743" y="218.012" width="12.7826" height="27.6956" rx="5" transform="rotate(-22.9045 144.743 218.012)" fill="#AAAAAA"/>
<rect x="173.114" y="205.949" width="12.7826" height="27.6956" rx="5" transform="rotate(-40.0284 173.114 205.949)" fill="#AAAAAA"/>
<rect x="196.086" y="186.447" width="12.7826" height="27.6956" rx="5" transform="rotate(-59.2628 196.086 186.447)" fill="#1CA8B4"/>
<rect x="210.911" y="159.305" width="12.7826" height="27.6956" rx="5" transform="rotate(-74.2695 210.911 159.305)" fill="#1CA8B4"/>
<rect x="215.868" y="100.545" width="12.7826" height="27.6956" rx="5" transform="rotate(-112.904 215.868 100.545)" fill="#1CA8B4"/>
<rect x="203.848" y="72.2168" width="12.7826" height="27.6956" rx="5" transform="rotate(-130.028 203.848 72.2168)" fill="#1CA8B4"/>
<rect x="184.278" y="49.2324" width="12.7826" height="27.6956" rx="5" transform="rotate(-149.263 184.278 49.2324)" fill="#1CA8B4"/>
<rect x="157.18" y="34.3848" width="12.7826" height="27.6956" rx="5" transform="rotate(-164.27 157.18 34.3848)" fill="#1CA8B4"/>
<rect x="27.6411" y="147" width="12.7826" height="27.6956" rx="5" transform="rotate(67.0955 27.6411 147)" fill="#AAAAAA"/>
<rect x="39.7153" y="175.328" width="12.7826" height="27.6956" rx="5" transform="rotate(49.9716 39.7153 175.328)" fill="#AAAAAA"/>
<rect x="59.2114" y="198.314" width="12.7826" height="27.6956" rx="5" transform="rotate(30.7372 59.2114 198.314)" fill="#AAAAAA"/>
<rect x="86.3638" y="213.16" width="12.7826" height="27.6956" rx="5" transform="rotate(15.7305 86.3638 213.16)" fill="#AAAAAA"/>
<rect x="98.3911" y="29.7734" width="12.7826" height="27.6956" rx="5" transform="rotate(157.096 98.3911 29.7734)" fill="#AAAAAA"/>
<rect x="70.0942" y="41.8359" width="12.7826" height="27.6956" rx="5" transform="rotate(139.972 70.0942 41.8359)" fill="#AAAAAA"/>
<rect x="47.0781" y="61.3379" width="12.7826" height="27.6956" rx="5" transform="rotate(120.737 47.0781 61.3379)" fill="#AAAAAA"/>
<rect x="32.2231" y="88.4805" width="12.7826" height="27.6956" rx="5" transform="rotate(105.73 32.2231 88.4805)" fill="#AAAAAA"/>
<rect x="217.309" y="129.957" width="12.7826" height="27.6956" rx="5" transform="rotate(-90 217.309 129.957)" fill="#1CA8B4"/>
<path d="M72.5305 132.845V128.795L88.0555 108.5H94.3105L79.0105 128.795L76.0855 127.895H101.06V132.845H72.5305ZM89.8105 140V132.845L89.9905 127.895V121.55H95.4805V140H89.8105ZM116.662 140.45C114.172 140.45 111.922 139.82 109.912 138.56C107.932 137.3 106.372 135.47 105.232 133.07C104.092 130.64 103.522 127.7 103.522 124.25C103.522 120.8 104.092 117.875 105.232 115.475C106.372 113.045 107.932 111.2 109.912 109.94C111.922 108.68 114.172 108.05 116.662 108.05C119.182 108.05 121.432 108.68 123.412 109.94C125.392 111.2 126.952 113.045 128.092 115.475C129.262 117.875 129.847 120.8 129.847 124.25C129.847 127.7 129.262 130.64 128.092 133.07C126.952 135.47 125.392 137.3 123.412 138.56C121.432 139.82 119.182 140.45 116.662 140.45ZM116.662 135.365C118.132 135.365 119.407 134.975 120.487 134.195C121.567 133.385 122.407 132.155 123.007 130.505C123.637 128.855 123.952 126.77 123.952 124.25C123.952 121.7 123.637 119.615 123.007 117.995C122.407 116.345 121.567 115.13 120.487 114.35C119.407 113.54 118.132 113.135 116.662 113.135C115.252 113.135 113.992 113.54 112.882 114.35C111.802 115.13 110.947 116.345 110.317 117.995C109.717 119.615 109.417 121.7 109.417 124.25C109.417 126.77 109.717 128.855 110.317 130.505C110.947 132.155 111.802 133.385 112.882 134.195C113.992 134.975 115.252 135.365 116.662 135.365ZM138.211 140L159.721 108.5H164.131L142.621 140H138.211ZM140.821 125.465C139.351 125.465 138.046 125.105 136.906 124.385C135.766 123.665 134.881 122.66 134.251 121.37C133.621 120.08 133.306 118.565 133.306 116.825C133.306 115.085 133.621 113.57 134.251 112.28C134.881 110.99 135.766 109.985 136.906 109.265C138.046 108.545 139.351 108.185 140.821 108.185C142.351 108.185 143.671 108.545 144.781 109.265C145.921 109.985 146.806 110.99 147.436 112.28C148.066 113.57 148.381 115.085 148.381 116.825C148.381 118.565 148.066 120.08 147.436 121.37C146.806 122.66 145.921 123.665 144.781 124.385C143.671 125.105 142.351 125.465 140.821 125.465ZM140.866 122.315C142.066 122.315 142.996 121.85 143.656 120.92C144.346 119.96 144.691 118.595 144.691 116.825C144.691 115.055 144.346 113.705 143.656 112.775C142.996 111.815 142.066 111.335 140.866 111.335C139.666 111.335 138.706 111.815 137.986 112.775C137.296 113.735 136.951 115.085 136.951 116.825C136.951 118.565 137.296 119.915 137.986 120.875C138.706 121.835 139.666 122.315 140.866 122.315ZM161.476 140.315C160.006 140.315 158.701 139.955 157.561 139.235C156.421 138.515 155.536 137.51 154.906 136.22C154.276 134.93 153.961 133.415 153.961 131.675C153.961 129.935 154.276 128.42 154.906 127.13C155.536 125.84 156.421 124.835 157.561 124.115C158.701 123.395 160.006 123.035 161.476 123.035C163.006 123.035 164.326 123.395 165.436 124.115C166.576 124.835 167.461 125.84 168.091 127.13C168.721 128.42 169.036 129.935 169.036 131.675C169.036 133.415 168.721 134.93 168.091 136.22C167.461 137.51 166.576 138.515 165.436 139.235C164.326 139.955 163.006 140.315 161.476 140.315ZM161.476 137.165C162.676 137.165 163.621 136.685 164.311 135.725C165.001 134.765 165.346 133.415 165.346 131.675C165.346 129.935 165.001 128.585 164.311 127.625C163.621 126.665 162.676 126.185 161.476 126.185C160.306 126.185 159.361 126.665 158.641 127.625C157.951 128.555 157.606 129.905 157.606 131.675C157.606 133.445 157.951 134.81 158.641 135.77C159.361 136.7 160.306 137.165 161.476 137.165Z" fill="#1CA8B4"/>
</svg>
