<svg width="245" height="248" viewBox="0 0 245 248" fill="none" xmlns="http://www.w3.org/2000/svg">
<rect x="115.012" y="219.436" width="12.7826" height="27.6956" rx="5" fill="#AAAAAA"/>
<rect x="27.6958" y="117.174" width="12.7826" height="27.6956" rx="5" transform="rotate(90 27.6958 117.174)" fill="#AAAAAA"/>
<rect x="127.813" y="27.6953" width="12.7826" height="27.6956" rx="5" transform="rotate(180 127.813 27.6953)" fill="#AAAAAA"/>
<rect x="144.743" y="218.012" width="12.7826" height="27.6956" rx="5" transform="rotate(-22.9045 144.743 218.012)" fill="#AAAAAA"/>
<rect x="173.114" y="205.949" width="12.7826" height="27.6956" rx="5" transform="rotate(-40.0284 173.114 205.949)" fill="#AAAAAA"/>
<rect x="196.086" y="186.447" width="12.7826" height="27.6956" rx="5" transform="rotate(-59.2628 196.086 186.447)" fill="#AAAAAA"/>
<rect x="210.911" y="159.305" width="12.7826" height="27.6956" rx="5" transform="rotate(-74.2695 210.911 159.305)" fill="#AAAAAA"/>
<rect x="215.868" y="100.545" width="12.7826" height="27.6956" rx="5" transform="rotate(-112.904 215.868 100.545)" fill="#AAAAAA"/>
<rect x="203.848" y="72.2168" width="12.7826" height="27.6956" rx="5" transform="rotate(-130.028 203.848 72.2168)" fill="#AAAAAA"/>
<rect x="184.278" y="49.2324" width="12.7826" height="27.6956" rx="5" transform="rotate(-149.263 184.278 49.2324)" fill="#AAAAAA"/>
<rect x="157.18" y="34.3848" width="12.7826" height="27.6956" rx="5" transform="rotate(-164.27 157.18 34.3848)" fill="#AAAAAA"/>
<rect x="27.6411" y="147" width="12.7826" height="27.6956" rx="5" transform="rotate(67.0955 27.6411 147)" fill="#AAAAAA"/>
<rect x="39.7153" y="175.328" width="12.7826" height="27.6956" rx="5" transform="rotate(49.9716 39.7153 175.328)" fill="#AAAAAA"/>
<rect x="59.2114" y="198.314" width="12.7826" height="27.6956" rx="5" transform="rotate(30.7372 59.2114 198.314)" fill="#AAAAAA"/>
<rect x="86.3638" y="213.16" width="12.7826" height="27.6956" rx="5" transform="rotate(15.7305 86.3638 213.16)" fill="#AAAAAA"/>
<rect x="98.3911" y="29.7734" width="12.7826" height="27.6956" rx="5" transform="rotate(157.096 98.3911 29.7734)" fill="#AAAAAA"/>
<rect x="70.0942" y="41.8359" width="12.7826" height="27.6956" rx="5" transform="rotate(139.972 70.0942 41.8359)" fill="#AAAAAA"/>
<rect x="47.0781" y="61.3379" width="12.7826" height="27.6956" rx="5" transform="rotate(120.737 47.0781 61.3379)" fill="#AAAAAA"/>
<rect x="32.2231" y="88.4805" width="12.7826" height="27.6956" rx="5" transform="rotate(105.73 32.2231 88.4805)" fill="#AAAAAA"/>
<rect x="217.309" y="129.957" width="12.7826" height="27.6956" rx="5" transform="rotate(-90 217.309 129.957)" fill="#AAAAAA"/>
<path d="M80.0205 140V110.75L82.5855 113.405H73.3605V108.5H85.8705V140H80.0205ZM105.259 140.45C102.769 140.45 100.519 139.82 98.5092 138.56C96.5292 137.3 94.9692 135.47 93.8292 133.07C92.6892 130.64 92.1192 127.7 92.1192 124.25C92.1192 120.8 92.6892 117.875 93.8292 115.475C94.9692 113.045 96.5292 111.2 98.5092 109.94C100.519 108.68 102.769 108.05 105.259 108.05C107.779 108.05 110.029 108.68 112.009 109.94C113.989 111.2 115.549 113.045 116.689 115.475C117.859 117.875 118.444 120.8 118.444 124.25C118.444 127.7 117.859 130.64 116.689 133.07C115.549 135.47 113.989 137.3 112.009 138.56C110.029 139.82 107.779 140.45 105.259 140.45ZM105.259 135.365C106.729 135.365 108.004 134.975 109.084 134.195C110.164 133.385 111.004 132.155 111.604 130.505C112.234 128.855 112.549 126.77 112.549 124.25C112.549 121.7 112.234 119.615 111.604 117.995C111.004 116.345 110.164 115.13 109.084 114.35C108.004 113.54 106.729 113.135 105.259 113.135C103.849 113.135 102.589 113.54 101.479 114.35C100.399 115.13 99.5442 116.345 98.9142 117.995C98.3142 119.615 98.0142 121.7 98.0142 124.25C98.0142 126.77 98.3142 128.855 98.9142 130.505C99.5442 132.155 100.399 133.385 101.479 134.195C102.589 134.975 103.849 135.365 105.259 135.365ZM139.244 140L160.754 108.5H165.164L143.654 140H139.244ZM141.854 125.465C140.384 125.465 139.079 125.105 137.939 124.385C136.799 123.665 135.914 122.66 135.284 121.37C134.654 120.08 134.339 118.565 134.339 116.825C134.339 115.085 134.654 113.57 135.284 112.28C135.914 110.99 136.799 109.985 137.939 109.265C139.079 108.545 140.384 108.185 141.854 108.185C143.384 108.185 144.704 108.545 145.814 109.265C146.954 109.985 147.839 110.99 148.469 112.28C149.099 113.57 149.414 115.085 149.414 116.825C149.414 118.565 149.099 120.08 148.469 121.37C147.839 122.66 146.954 123.665 145.814 124.385C144.704 125.105 143.384 125.465 141.854 125.465ZM141.899 122.315C143.099 122.315 144.029 121.85 144.689 120.92C145.379 119.96 145.724 118.595 145.724 116.825C145.724 115.055 145.379 113.705 144.689 112.775C144.029 111.815 143.099 111.335 141.899 111.335C140.699 111.335 139.739 111.815 139.019 112.775C138.329 113.735 137.984 115.085 137.984 116.825C137.984 118.565 138.329 119.915 139.019 120.875C139.739 121.835 140.699 122.315 141.899 122.315ZM162.509 140.315C161.039 140.315 159.734 139.955 158.594 139.235C157.454 138.515 156.569 137.51 155.939 136.22C155.309 134.93 154.994 133.415 154.994 131.675C154.994 129.935 155.309 128.42 155.939 127.13C156.569 125.84 157.454 124.835 158.594 124.115C159.734 123.395 161.039 123.035 162.509 123.035C164.039 123.035 165.359 123.395 166.469 124.115C167.609 124.835 168.494 125.84 169.124 127.13C169.754 128.42 170.069 129.935 170.069 131.675C170.069 133.415 169.754 134.93 169.124 136.22C168.494 137.51 167.609 138.515 166.469 139.235C165.359 139.955 164.039 140.315 162.509 140.315ZM162.509 137.165C163.709 137.165 164.654 136.685 165.344 135.725C166.034 134.765 166.379 133.415 166.379 131.675C166.379 129.935 166.034 128.585 165.344 127.625C164.654 126.665 163.709 126.185 162.509 126.185C161.339 126.185 160.394 126.665 159.674 127.625C158.984 128.555 158.639 129.905 158.639 131.675C158.639 133.445 158.984 134.81 159.674 135.77C160.394 136.7 161.339 137.165 162.509 137.165Z" fill="#1CA8B4"/>
<rect x="115.012" y="219.436" width="12.7826" height="27.6956" rx="5" fill="#AAAAAA"/>
<rect x="27.6958" y="117.174" width="12.7826" height="27.6956" rx="5" transform="rotate(90 27.6958 117.174)" fill="#AAAAAA"/>
<rect x="127.813" y="27.6953" width="12.7826" height="27.6956" rx="5" transform="rotate(180 127.813 27.6953)" fill="#1CA8B4"/>
<rect x="144.743" y="218.012" width="12.7826" height="27.6956" rx="5" transform="rotate(-22.9045 144.743 218.012)" fill="#AAAAAA"/>
<rect x="173.114" y="205.949" width="12.7826" height="27.6956" rx="5" transform="rotate(-40.0284 173.114 205.949)" fill="#AAAAAA"/>
<rect x="196.086" y="186.447" width="12.7826" height="27.6956" rx="5" transform="rotate(-59.2628 196.086 186.447)" fill="#AAAAAA"/>
<rect x="210.911" y="159.305" width="12.7826" height="27.6956" rx="5" transform="rotate(-74.2695 210.911 159.305)" fill="#AAAAAA"/>
<rect x="215.868" y="100.545" width="12.7826" height="27.6956" rx="5" transform="rotate(-112.904 215.868 100.545)" fill="#AAAAAA"/>
<rect x="203.848" y="72.2168" width="12.7826" height="27.6956" rx="5" transform="rotate(-130.028 203.848 72.2168)" fill="#AAAAAA"/>
<rect x="184.278" y="49.2324" width="12.7826" height="27.6956" rx="5" transform="rotate(-149.263 184.278 49.2324)" fill="#AAAAAA"/>
<rect x="157.18" y="34.3848" width="12.7826" height="27.6956" rx="5" transform="rotate(-164.27 157.18 34.3848)" fill="#1CA8B4"/>
<rect x="27.6411" y="147" width="12.7826" height="27.6956" rx="5" transform="rotate(67.0955 27.6411 147)" fill="#AAAAAA"/>
<rect x="39.7153" y="175.328" width="12.7826" height="27.6956" rx="5" transform="rotate(49.9716 39.7153 175.328)" fill="#AAAAAA"/>
<rect x="59.2114" y="198.314" width="12.7826" height="27.6956" rx="5" transform="rotate(30.7372 59.2114 198.314)" fill="#AAAAAA"/>
<rect x="86.3638" y="213.16" width="12.7826" height="27.6956" rx="5" transform="rotate(15.7305 86.3638 213.16)" fill="#AAAAAA"/>
<rect x="98.3911" y="29.7734" width="12.7826" height="27.6956" rx="5" transform="rotate(157.096 98.3911 29.7734)" fill="#AAAAAA"/>
<rect x="70.0942" y="41.8359" width="12.7826" height="27.6956" rx="5" transform="rotate(139.972 70.0942 41.8359)" fill="#AAAAAA"/>
<rect x="47.0781" y="61.3379" width="12.7826" height="27.6956" rx="5" transform="rotate(120.737 47.0781 61.3379)" fill="#AAAAAA"/>
<rect x="32.2231" y="88.4805" width="12.7826" height="27.6956" rx="5" transform="rotate(105.73 32.2231 88.4805)" fill="#AAAAAA"/>
<rect x="217.309" y="129.957" width="12.7826" height="27.6956" rx="5" transform="rotate(-90 217.309 129.957)" fill="#AAAAAA"/>
</svg>
