<svg width="245" height="248" viewBox="0 0 245 248" fill="none" xmlns="http://www.w3.org/2000/svg">
<rect x="115.012" y="219.436" width="12.7826" height="27.6956" rx="5" fill="#AAAAAA"/>
<rect x="27.6953" y="117.174" width="12.7826" height="27.6956" rx="5" transform="rotate(90 27.6953 117.174)" fill="#AAAAAA"/>
<rect x="127.812" y="27.6953" width="12.7826" height="27.6956" rx="5" transform="rotate(180 127.812 27.6953)" fill="#AAAAAA"/>
<rect x="144.743" y="218.012" width="12.7826" height="27.6956" rx="5" transform="rotate(-22.9045 144.743 218.012)" fill="#AAAAAA"/>
<rect x="173.113" y="205.949" width="12.7826" height="27.6956" rx="5" transform="rotate(-40.0284 173.113 205.949)" fill="#AAAAAA"/>
<rect x="196.086" y="186.447" width="12.7826" height="27.6956" rx="5" transform="rotate(-59.2628 196.086 186.447)" fill="#AAAAAA"/>
<rect x="210.91" y="159.305" width="12.7826" height="27.6956" rx="5" transform="rotate(-74.2695 210.91 159.305)" fill="#AAAAAA"/>
<rect x="215.867" y="100.545" width="12.7826" height="27.6956" rx="5" transform="rotate(-112.904 215.867 100.545)" fill="#AAAAAA"/>
<rect x="203.848" y="72.2168" width="12.7826" height="27.6956" rx="5" transform="rotate(-130.028 203.848 72.2168)" fill="#AAAAAA"/>
<rect x="184.277" y="49.2324" width="12.7826" height="27.6956" rx="5" transform="rotate(-149.263 184.277 49.2324)" fill="#AAAAAA"/>
<rect x="157.18" y="34.3848" width="12.7826" height="27.6956" rx="5" transform="rotate(-164.27 157.18 34.3848)" fill="#AAAAAA"/>
<rect x="27.6406" y="147" width="12.7826" height="27.6956" rx="5" transform="rotate(67.0955 27.6406 147)" fill="#AAAAAA"/>
<rect x="39.7148" y="175.328" width="12.7826" height="27.6956" rx="5" transform="rotate(49.9716 39.7148 175.328)" fill="#AAAAAA"/>
<rect x="59.2109" y="198.314" width="12.7826" height="27.6956" rx="5" transform="rotate(30.7372 59.2109 198.314)" fill="#AAAAAA"/>
<rect x="86.3633" y="213.16" width="12.7826" height="27.6956" rx="5" transform="rotate(15.7305 86.3633 213.16)" fill="#AAAAAA"/>
<rect x="98.3906" y="29.7734" width="12.7826" height="27.6956" rx="5" transform="rotate(157.096 98.3906 29.7734)" fill="#AAAAAA"/>
<rect x="70.0938" y="41.8359" width="12.7826" height="27.6956" rx="5" transform="rotate(139.972 70.0938 41.8359)" fill="#AAAAAA"/>
<rect x="47.0781" y="61.3379" width="12.7826" height="27.6956" rx="5" transform="rotate(120.737 47.0781 61.3379)" fill="#AAAAAA"/>
<rect x="32.2231" y="88.4805" width="12.7826" height="27.6956" rx="5" transform="rotate(105.73 32.2231 88.4805)" fill="#AAAAAA"/>
<rect x="217.309" y="129.957" width="12.7826" height="27.6956" rx="5" transform="rotate(-90 217.309 129.957)" fill="#AAAAAA"/>
<path d="M97.1205 140.45C94.6305 140.45 92.3805 139.82 90.3705 138.56C88.3905 137.3 86.8305 135.47 85.6905 133.07C84.5505 130.64 83.9805 127.7 83.9805 124.25C83.9805 120.8 84.5505 117.875 85.6905 115.475C86.8305 113.045 88.3905 111.2 90.3705 109.94C92.3805 108.68 94.6305 108.05 97.1205 108.05C99.6405 108.05 101.89 108.68 103.87 109.94C105.85 111.2 107.41 113.045 108.55 115.475C109.72 117.875 110.305 120.8 110.305 124.25C110.305 127.7 109.72 130.64 108.55 133.07C107.41 135.47 105.85 137.3 103.87 138.56C101.89 139.82 99.6405 140.45 97.1205 140.45ZM97.1205 135.365C98.5905 135.365 99.8655 134.975 100.945 134.195C102.025 133.385 102.865 132.155 103.465 130.505C104.095 128.855 104.41 126.77 104.41 124.25C104.41 121.7 104.095 119.615 103.465 117.995C102.865 116.345 102.025 115.13 100.945 114.35C99.8655 113.54 98.5905 113.135 97.1205 113.135C95.7105 113.135 94.4505 113.54 93.3405 114.35C92.2605 115.13 91.4055 116.345 90.7755 117.995C90.1755 119.615 89.8755 121.7 89.8755 124.25C89.8755 126.77 90.1755 128.855 90.7755 130.505C91.4055 132.155 92.2605 133.385 93.3405 134.195C94.4505 134.975 95.7105 135.365 97.1205 135.365ZM131.105 140L152.615 108.5H157.025L135.515 140H131.105ZM133.715 125.465C132.245 125.465 130.94 125.105 129.8 124.385C128.66 123.665 127.775 122.66 127.145 121.37C126.515 120.08 126.2 118.565 126.2 116.825C126.2 115.085 126.515 113.57 127.145 112.28C127.775 110.99 128.66 109.985 129.8 109.265C130.94 108.545 132.245 108.185 133.715 108.185C135.245 108.185 136.565 108.545 137.675 109.265C138.815 109.985 139.7 110.99 140.33 112.28C140.96 113.57 141.275 115.085 141.275 116.825C141.275 118.565 140.96 120.08 140.33 121.37C139.7 122.66 138.815 123.665 137.675 124.385C136.565 125.105 135.245 125.465 133.715 125.465ZM133.76 122.315C134.96 122.315 135.89 121.85 136.55 120.92C137.24 119.96 137.585 118.595 137.585 116.825C137.585 115.055 137.24 113.705 136.55 112.775C135.89 111.815 134.96 111.335 133.76 111.335C132.56 111.335 131.6 111.815 130.88 112.775C130.19 113.735 129.845 115.085 129.845 116.825C129.845 118.565 130.19 119.915 130.88 120.875C131.6 121.835 132.56 122.315 133.76 122.315ZM154.37 140.315C152.9 140.315 151.595 139.955 150.455 139.235C149.315 138.515 148.43 137.51 147.8 136.22C147.17 134.93 146.855 133.415 146.855 131.675C146.855 129.935 147.17 128.42 147.8 127.13C148.43 125.84 149.315 124.835 150.455 124.115C151.595 123.395 152.9 123.035 154.37 123.035C155.9 123.035 157.22 123.395 158.33 124.115C159.47 124.835 160.355 125.84 160.985 127.13C161.615 128.42 161.93 129.935 161.93 131.675C161.93 133.415 161.615 134.93 160.985 136.22C160.355 137.51 159.47 138.515 158.33 139.235C157.22 139.955 155.9 140.315 154.37 140.315ZM154.37 137.165C155.57 137.165 156.515 136.685 157.205 135.725C157.895 134.765 158.24 133.415 158.24 131.675C158.24 129.935 157.895 128.585 157.205 127.625C156.515 126.665 155.57 126.185 154.37 126.185C153.2 126.185 152.255 126.665 151.535 127.625C150.845 128.555 150.5 129.905 150.5 131.675C150.5 133.445 150.845 134.81 151.535 135.77C152.255 136.7 153.2 137.165 154.37 137.165Z" fill="#1CA8B4"/>
</svg>
