<svg width="245" height="248" viewBox="0 0 245 248" fill="none" xmlns="http://www.w3.org/2000/svg">
<rect x="115.012" y="219.436" width="12.7826" height="27.6956" rx="5" fill="#AAAAAA"/>
<rect x="27.6953" y="117.174" width="12.7826" height="27.6956" rx="5" transform="rotate(90 27.6953 117.174)" fill="#AAAAAA"/>
<rect x="127.812" y="27.6953" width="12.7826" height="27.6956" rx="5" transform="rotate(180 127.812 27.6953)" fill="#AAAAAA"/>
<rect x="144.743" y="218.012" width="12.7826" height="27.6956" rx="5" transform="rotate(-22.9045 144.743 218.012)" fill="#AAAAAA"/>
<rect x="173.113" y="205.949" width="12.7826" height="27.6956" rx="5" transform="rotate(-40.0284 173.113 205.949)" fill="#AAAAAA"/>
<rect x="196.086" y="186.447" width="12.7826" height="27.6956" rx="5" transform="rotate(-59.2628 196.086 186.447)" fill="#AAAAAA"/>
<rect x="210.91" y="159.305" width="12.7826" height="27.6956" rx="5" transform="rotate(-74.2695 210.91 159.305)" fill="#AAAAAA"/>
<rect x="215.867" y="100.545" width="12.7826" height="27.6956" rx="5" transform="rotate(-112.904 215.867 100.545)" fill="#AAAAAA"/>
<rect x="203.848" y="72.2168" width="12.7826" height="27.6956" rx="5" transform="rotate(-130.028 203.848 72.2168)" fill="#AAAAAA"/>
<rect x="184.277" y="49.2324" width="12.7826" height="27.6956" rx="5" transform="rotate(-149.263 184.277 49.2324)" fill="#AAAAAA"/>
<rect x="157.18" y="34.3848" width="12.7826" height="27.6956" rx="5" transform="rotate(-164.27 157.18 34.3848)" fill="#AAAAAA"/>
<rect x="27.6406" y="147" width="12.7826" height="27.6956" rx="5" transform="rotate(67.0955 27.6406 147)" fill="#AAAAAA"/>
<rect x="39.7148" y="175.328" width="12.7826" height="27.6956" rx="5" transform="rotate(49.9716 39.7148 175.328)" fill="#AAAAAA"/>
<rect x="59.2109" y="198.314" width="12.7826" height="27.6956" rx="5" transform="rotate(30.7372 59.2109 198.314)" fill="#AAAAAA"/>
<rect x="86.3633" y="213.16" width="12.7826" height="27.6956" rx="5" transform="rotate(15.7305 86.3633 213.16)" fill="#AAAAAA"/>
<rect x="98.3906" y="29.7734" width="12.7826" height="27.6956" rx="5" transform="rotate(157.096 98.3906 29.7734)" fill="#AAAAAA"/>
<rect x="70.0938" y="41.8359" width="12.7826" height="27.6956" rx="5" transform="rotate(139.972 70.0938 41.8359)" fill="#AAAAAA"/>
<rect x="47.0781" y="61.3379" width="12.7826" height="27.6956" rx="5" transform="rotate(120.737 47.0781 61.3379)" fill="#AAAAAA"/>
<rect x="32.2231" y="88.4805" width="12.7826" height="27.6956" rx="5" transform="rotate(105.73 32.2231 88.4805)" fill="#AAAAAA"/>
<rect x="217.309" y="129.957" width="12.7826" height="27.6956" rx="5" transform="rotate(-90 217.309 129.957)" fill="#AAAAAA"/>
<path d="M94.4205 140.45C92.2005 140.45 90.0255 140.135 87.8955 139.505C85.7955 138.845 84.0255 137.945 82.5855 136.805L85.0605 132.26C86.2005 133.19 87.5805 133.94 89.2005 134.51C90.8505 135.08 92.5605 135.365 94.3305 135.365C96.4005 135.365 98.0205 134.93 99.1905 134.06C100.39 133.19 100.99 132.02 100.99 130.55C100.99 129.56 100.735 128.69 100.225 127.94C99.7455 127.19 98.8755 126.62 97.6155 126.23C96.3855 125.84 94.6905 125.645 92.5305 125.645H84.9255L86.5455 108.5H105.04V113.405H88.7055L91.7655 110.615L90.5505 123.44L87.4905 120.695H93.8355C96.9555 120.695 99.4605 121.115 101.35 121.955C103.27 122.765 104.665 123.905 105.535 125.375C106.435 126.815 106.885 128.465 106.885 130.325C106.885 132.155 106.435 133.835 105.535 135.365C104.635 136.895 103.255 138.125 101.395 139.055C99.5655 139.985 97.2405 140.45 94.4205 140.45ZM127.106 140L148.616 108.5H153.026L131.516 140H127.106ZM129.716 125.465C128.246 125.465 126.941 125.105 125.801 124.385C124.661 123.665 123.776 122.66 123.146 121.37C122.516 120.08 122.201 118.565 122.201 116.825C122.201 115.085 122.516 113.57 123.146 112.28C123.776 110.99 124.661 109.985 125.801 109.265C126.941 108.545 128.246 108.185 129.716 108.185C131.246 108.185 132.566 108.545 133.676 109.265C134.816 109.985 135.701 110.99 136.331 112.28C136.961 113.57 137.276 115.085 137.276 116.825C137.276 118.565 136.961 120.08 136.331 121.37C135.701 122.66 134.816 123.665 133.676 124.385C132.566 125.105 131.246 125.465 129.716 125.465ZM129.761 122.315C130.961 122.315 131.891 121.85 132.551 120.92C133.241 119.96 133.586 118.595 133.586 116.825C133.586 115.055 133.241 113.705 132.551 112.775C131.891 111.815 130.961 111.335 129.761 111.335C128.561 111.335 127.601 111.815 126.881 112.775C126.191 113.735 125.846 115.085 125.846 116.825C125.846 118.565 126.191 119.915 126.881 120.875C127.601 121.835 128.561 122.315 129.761 122.315ZM150.371 140.315C148.901 140.315 147.596 139.955 146.456 139.235C145.316 138.515 144.431 137.51 143.801 136.22C143.171 134.93 142.856 133.415 142.856 131.675C142.856 129.935 143.171 128.42 143.801 127.13C144.431 125.84 145.316 124.835 146.456 124.115C147.596 123.395 148.901 123.035 150.371 123.035C151.901 123.035 153.221 123.395 154.331 124.115C155.471 124.835 156.356 125.84 156.986 127.13C157.616 128.42 157.931 129.935 157.931 131.675C157.931 133.415 157.616 134.93 156.986 136.22C156.356 137.51 155.471 138.515 154.331 139.235C153.221 139.955 151.901 140.315 150.371 140.315ZM150.371 137.165C151.571 137.165 152.516 136.685 153.206 135.725C153.896 134.765 154.241 133.415 154.241 131.675C154.241 129.935 153.896 128.585 153.206 127.625C152.516 126.665 151.571 126.185 150.371 126.185C149.201 126.185 148.256 126.665 147.536 127.625C146.846 128.555 146.501 129.905 146.501 131.675C146.501 133.445 146.846 134.81 147.536 135.77C148.256 136.7 149.201 137.165 150.371 137.165Z" fill="#1CA8B4"/>
<rect x="115.012" y="219.436" width="12.7826" height="27.6956" rx="5" fill="#AAAAAA"/>
<rect x="27.6953" y="117.174" width="12.7826" height="27.6956" rx="5" transform="rotate(90 27.6953 117.174)" fill="#AAAAAA"/>
<rect x="127.812" y="27.6953" width="12.7826" height="27.6956" rx="5" transform="rotate(180 127.812 27.6953)" fill="#1CA8B4"/>
<rect x="144.743" y="218.012" width="12.7826" height="27.6956" rx="5" transform="rotate(-22.9045 144.743 218.012)" fill="#AAAAAA"/>
<rect x="173.113" y="205.949" width="12.7826" height="27.6956" rx="5" transform="rotate(-40.0284 173.113 205.949)" fill="#AAAAAA"/>
<rect x="196.086" y="186.447" width="12.7826" height="27.6956" rx="5" transform="rotate(-59.2628 196.086 186.447)" fill="#AAAAAA"/>
<rect x="210.91" y="159.305" width="12.7826" height="27.6956" rx="5" transform="rotate(-74.2695 210.91 159.305)" fill="#AAAAAA"/>
<rect x="215.867" y="100.545" width="12.7826" height="27.6956" rx="5" transform="rotate(-112.904 215.867 100.545)" fill="#AAAAAA"/>
<rect x="203.848" y="72.2168" width="12.7826" height="27.6956" rx="5" transform="rotate(-130.028 203.848 72.2168)" fill="#AAAAAA"/>
<rect x="184.277" y="49.2324" width="12.7826" height="27.6956" rx="5" transform="rotate(-149.263 184.277 49.2324)" fill="#AAAAAA"/>
<rect x="157.18" y="34.3848" width="12.7826" height="27.6956" rx="5" transform="rotate(-164.27 157.18 34.3848)" fill="#AAAAAA"/>
<rect x="27.6406" y="147" width="12.7826" height="27.6956" rx="5" transform="rotate(67.0955 27.6406 147)" fill="#AAAAAA"/>
<rect x="39.7148" y="175.328" width="12.7826" height="27.6956" rx="5" transform="rotate(49.9716 39.7148 175.328)" fill="#AAAAAA"/>
<rect x="59.2109" y="198.314" width="12.7826" height="27.6956" rx="5" transform="rotate(30.7372 59.2109 198.314)" fill="#AAAAAA"/>
<rect x="86.3633" y="213.16" width="12.7826" height="27.6956" rx="5" transform="rotate(15.7305 86.3633 213.16)" fill="#AAAAAA"/>
<rect x="98.3906" y="29.7734" width="12.7826" height="27.6956" rx="5" transform="rotate(157.096 98.3906 29.7734)" fill="#AAAAAA"/>
<rect x="70.0938" y="41.8359" width="12.7826" height="27.6956" rx="5" transform="rotate(139.972 70.0938 41.8359)" fill="#AAAAAA"/>
<rect x="47.0781" y="61.3379" width="12.7826" height="27.6956" rx="5" transform="rotate(120.737 47.0781 61.3379)" fill="#AAAAAA"/>
<rect x="32.2231" y="88.4805" width="12.7826" height="27.6956" rx="5" transform="rotate(105.73 32.2231 88.4805)" fill="#AAAAAA"/>
<rect x="217.309" y="129.957" width="12.7826" height="27.6956" rx="5" transform="rotate(-90 217.309 129.957)" fill="#AAAAAA"/>
</svg>
