<svg width="245" height="248" viewBox="0 0 245 248" fill="none" xmlns="http://www.w3.org/2000/svg">
<rect x="115.016" y="219.436" width="12.7826" height="27.6956" rx="5" fill="#AAAAAA"/>
<rect x="27.6958" y="117.174" width="12.7826" height="27.6956" rx="5" transform="rotate(90 27.6958 117.174)" fill="#AAAAAA"/>
<rect x="127.813" y="27.6973" width="12.7826" height="27.6956" rx="5" transform="rotate(180 127.813 27.6973)" fill="#AAAAAA"/>
<rect x="144.743" y="218.012" width="12.7826" height="27.6956" rx="5" transform="rotate(-22.9045 144.743 218.012)" fill="#AAAAAA"/>
<rect x="173.118" y="205.949" width="12.7826" height="27.6956" rx="5" transform="rotate(-40.0284 173.118 205.949)" fill="#AAAAAA"/>
<rect x="196.086" y="186.447" width="12.7826" height="27.6956" rx="5" transform="rotate(-59.2628 196.086 186.447)" fill="#AAAAAA"/>
<rect x="210.915" y="159.305" width="12.7826" height="27.6956" rx="5" transform="rotate(-74.2695 210.915 159.305)" fill="#AAAAAA"/>
<rect x="215.868" y="100.545" width="12.7826" height="27.6956" rx="5" transform="rotate(-112.904 215.868 100.545)" fill="#AAAAAA"/>
<rect x="203.844" y="72.2168" width="12.7826" height="27.6956" rx="5" transform="rotate(-130.028 203.844 72.2168)" fill="#AAAAAA"/>
<rect x="184.282" y="49.2324" width="12.7826" height="27.6956" rx="5" transform="rotate(-149.263 184.282 49.2324)" fill="#AAAAAA"/>
<rect x="157.18" y="34.3848" width="12.7826" height="27.6956" rx="5" transform="rotate(-164.27 157.18 34.3848)" fill="#AAAAAA"/>
<rect x="27.6411" y="147" width="12.7826" height="27.6956" rx="5" transform="rotate(67.0955 27.6411 147)" fill="#AAAAAA"/>
<rect x="39.7192" y="175.328" width="12.7826" height="27.6956" rx="5" transform="rotate(49.9716 39.7192 175.328)" fill="#AAAAAA"/>
<rect x="59.2114" y="198.314" width="12.7826" height="27.6956" rx="5" transform="rotate(30.7372 59.2114 198.314)" fill="#AAAAAA"/>
<rect x="86.3599" y="213.16" width="12.7826" height="27.6956" rx="5" transform="rotate(15.7305 86.3599 213.16)" fill="#AAAAAA"/>
<rect x="98.3911" y="29.7734" width="12.7826" height="27.6956" rx="5" transform="rotate(157.096 98.3911 29.7734)" fill="#AAAAAA"/>
<rect x="70.0942" y="41.8359" width="12.7826" height="27.6956" rx="5" transform="rotate(139.972 70.0942 41.8359)" fill="#AAAAAA"/>
<rect x="47.0786" y="61.3379" width="12.7826" height="27.6956" rx="5" transform="rotate(120.737 47.0786 61.3379)" fill="#AAAAAA"/>
<rect x="32.2271" y="88.4805" width="12.7826" height="27.6956" rx="5" transform="rotate(105.73 32.2271 88.4805)" fill="#AAAAAA"/>
<path d="M74.5755 140V136.085L87.0855 124.205C88.1355 123.215 88.9155 122.345 89.4255 121.595C89.9355 120.845 90.2655 120.155 90.4155 119.525C90.5955 118.865 90.6855 118.25 90.6855 117.68C90.6855 116.24 90.1905 115.13 89.2005 114.35C88.2105 113.54 86.7555 113.135 84.8355 113.135C83.3055 113.135 81.9105 113.405 80.6505 113.945C79.4205 114.485 78.3555 115.31 77.4555 116.42L73.3605 113.27C74.5905 111.62 76.2405 110.345 78.3105 109.445C80.4105 108.515 82.7505 108.05 85.3305 108.05C87.6105 108.05 89.5905 108.425 91.2705 109.175C92.9805 109.895 94.2855 110.93 95.1855 112.28C96.1155 113.63 96.5805 115.235 96.5805 117.095C96.5805 118.115 96.4455 119.135 96.1755 120.155C95.9055 121.145 95.3955 122.195 94.6455 123.305C93.8955 124.415 92.8005 125.66 91.3605 127.04L80.6055 137.255L79.3905 135.05H97.7955V140H74.5755ZM114.312 140.45C111.822 140.45 109.572 139.82 107.562 138.56C105.582 137.3 104.022 135.47 102.882 133.07C101.742 130.64 101.172 127.7 101.172 124.25C101.172 120.8 101.742 117.875 102.882 115.475C104.022 113.045 105.582 111.2 107.562 109.94C109.572 108.68 111.822 108.05 114.312 108.05C116.832 108.05 119.082 108.68 121.062 109.94C123.042 111.2 124.602 113.045 125.742 115.475C126.912 117.875 127.497 120.8 127.497 124.25C127.497 127.7 126.912 130.64 125.742 133.07C124.602 135.47 123.042 137.3 121.062 138.56C119.082 139.82 116.832 140.45 114.312 140.45ZM114.312 135.365C115.782 135.365 117.057 134.975 118.137 134.195C119.217 133.385 120.057 132.155 120.657 130.505C121.287 128.855 121.602 126.77 121.602 124.25C121.602 121.7 121.287 119.615 120.657 117.995C120.057 116.345 119.217 115.13 118.137 114.35C117.057 113.54 115.782 113.135 114.312 113.135C112.902 113.135 111.642 113.54 110.532 114.35C109.452 115.13 108.597 116.345 107.967 117.995C107.367 119.615 107.067 121.7 107.067 124.25C107.067 126.77 107.367 128.855 107.967 130.505C108.597 132.155 109.452 133.385 110.532 134.195C111.642 134.975 112.902 135.365 114.312 135.365ZM148.297 140L169.807 108.5H174.217L152.707 140H148.297ZM150.907 125.465C149.437 125.465 148.132 125.105 146.992 124.385C145.852 123.665 144.967 122.66 144.337 121.37C143.707 120.08 143.392 118.565 143.392 116.825C143.392 115.085 143.707 113.57 144.337 112.28C144.967 110.99 145.852 109.985 146.992 109.265C148.132 108.545 149.437 108.185 150.907 108.185C152.437 108.185 153.757 108.545 154.867 109.265C156.007 109.985 156.892 110.99 157.522 112.28C158.152 113.57 158.467 115.085 158.467 116.825C158.467 118.565 158.152 120.08 157.522 121.37C156.892 122.66 156.007 123.665 154.867 124.385C153.757 125.105 152.437 125.465 150.907 125.465ZM150.952 122.315C152.152 122.315 153.082 121.85 153.742 120.92C154.432 119.96 154.777 118.595 154.777 116.825C154.777 115.055 154.432 113.705 153.742 112.775C153.082 111.815 152.152 111.335 150.952 111.335C149.752 111.335 148.792 111.815 148.072 112.775C147.382 113.735 147.037 115.085 147.037 116.825C147.037 118.565 147.382 119.915 148.072 120.875C148.792 121.835 149.752 122.315 150.952 122.315ZM171.562 140.315C170.092 140.315 168.787 139.955 167.647 139.235C166.507 138.515 165.622 137.51 164.992 136.22C164.362 134.93 164.047 133.415 164.047 131.675C164.047 129.935 164.362 128.42 164.992 127.13C165.622 125.84 166.507 124.835 167.647 124.115C168.787 123.395 170.092 123.035 171.562 123.035C173.092 123.035 174.412 123.395 175.522 124.115C176.662 124.835 177.547 125.84 178.177 127.13C178.807 128.42 179.122 129.935 179.122 131.675C179.122 133.415 178.807 134.93 178.177 136.22C177.547 137.51 176.662 138.515 175.522 139.235C174.412 139.955 173.092 140.315 171.562 140.315ZM171.562 137.165C172.762 137.165 173.707 136.685 174.397 135.725C175.087 134.765 175.432 133.415 175.432 131.675C175.432 129.935 175.087 128.585 174.397 127.625C173.707 126.665 172.762 126.185 171.562 126.185C170.392 126.185 169.447 126.665 168.727 127.625C168.037 128.555 167.692 129.905 167.692 131.675C167.692 133.445 168.037 134.81 168.727 135.77C169.447 136.7 170.392 137.165 171.562 137.165Z" fill="#1CA8B4"/>
<rect x="115.016" y="219.436" width="12.7826" height="27.6956" rx="5" fill="#AAAAAA"/>
<rect x="27.6958" y="117.174" width="12.7826" height="27.6956" rx="5" transform="rotate(90 27.6958 117.174)" fill="#AAAAAA"/>
<rect x="127.813" y="27.6973" width="12.7826" height="27.6956" rx="5" transform="rotate(180 127.813 27.6973)" fill="#1CA8B4"/>
<rect x="144.743" y="218.012" width="12.7826" height="27.6956" rx="5" transform="rotate(-22.9045 144.743 218.012)" fill="#AAAAAA"/>
<rect x="173.118" y="205.949" width="12.7826" height="27.6956" rx="5" transform="rotate(-40.0284 173.118 205.949)" fill="#AAAAAA"/>
<rect x="196.086" y="186.447" width="12.7826" height="27.6956" rx="5" transform="rotate(-59.2628 196.086 186.447)" fill="#AAAAAA"/>
<rect x="210.915" y="159.305" width="12.7826" height="27.6956" rx="5" transform="rotate(-74.2695 210.915 159.305)" fill="#AAAAAA"/>
<rect x="215.868" y="100.545" width="12.7826" height="27.6956" rx="5" transform="rotate(-112.904 215.868 100.545)" fill="#AAAAAA"/>
<rect x="203.844" y="72.2168" width="12.7826" height="27.6956" rx="5" transform="rotate(-130.028 203.844 72.2168)" fill="#AAAAAA"/>
<rect x="184.282" y="49.2324" width="12.7826" height="27.6956" rx="5" transform="rotate(-149.263 184.282 49.2324)" fill="#1CA8B4"/>
<rect x="157.18" y="34.3848" width="12.7826" height="27.6956" rx="5" transform="rotate(-164.27 157.18 34.3848)" fill="#1CA8B4"/>
<rect x="27.6411" y="147" width="12.7826" height="27.6956" rx="5" transform="rotate(67.0955 27.6411 147)" fill="#AAAAAA"/>
<rect x="39.7192" y="175.328" width="12.7826" height="27.6956" rx="5" transform="rotate(49.9716 39.7192 175.328)" fill="#AAAAAA"/>
<rect x="59.2114" y="198.314" width="12.7826" height="27.6956" rx="5" transform="rotate(30.7372 59.2114 198.314)" fill="#AAAAAA"/>
<rect x="86.3599" y="213.16" width="12.7826" height="27.6956" rx="5" transform="rotate(15.7305 86.3599 213.16)" fill="#AAAAAA"/>
<rect x="98.3911" y="29.7734" width="12.7826" height="27.6956" rx="5" transform="rotate(157.096 98.3911 29.7734)" fill="#AAAAAA"/>
<rect x="70.0942" y="41.8359" width="12.7826" height="27.6956" rx="5" transform="rotate(139.972 70.0942 41.8359)" fill="#AAAAAA"/>
<rect x="47.0786" y="61.3379" width="12.7826" height="27.6956" rx="5" transform="rotate(120.737 47.0786 61.3379)" fill="#AAAAAA"/>
<rect x="32.2271" y="88.4805" width="12.7826" height="27.6956" rx="5" transform="rotate(105.73 32.2271 88.4805)" fill="#AAAAAA"/>
<rect x="115.016" y="219.436" width="12.7826" height="27.6956" rx="5" fill="#AAAAAA"/>
<rect x="27.6958" y="117.174" width="12.7826" height="27.6956" rx="5" transform="rotate(90 27.6958 117.174)" fill="#AAAAAA"/>
<rect x="127.813" y="27.6973" width="12.7826" height="27.6956" rx="5" transform="rotate(180 127.813 27.6973)" fill="#1CA8B4"/>
<rect x="144.743" y="218.012" width="12.7826" height="27.6956" rx="5" transform="rotate(-22.9045 144.743 218.012)" fill="#AAAAAA"/>
<rect x="173.118" y="205.949" width="12.7826" height="27.6956" rx="5" transform="rotate(-40.0284 173.118 205.949)" fill="#AAAAAA"/>
<rect x="196.086" y="186.447" width="12.7826" height="27.6956" rx="5" transform="rotate(-59.2628 196.086 186.447)" fill="#AAAAAA"/>
<rect x="210.915" y="159.305" width="12.7826" height="27.6956" rx="5" transform="rotate(-74.2695 210.915 159.305)" fill="#AAAAAA"/>
<rect x="215.868" y="100.545" width="12.7826" height="27.6956" rx="5" transform="rotate(-112.904 215.868 100.545)" fill="#AAAAAA"/>
<rect x="203.844" y="72.2168" width="12.7826" height="27.6956" rx="5" transform="rotate(-130.028 203.844 72.2168)" fill="#1CA8B4"/>
<rect x="184.282" y="49.2324" width="12.7826" height="27.6956" rx="5" transform="rotate(-149.263 184.282 49.2324)" fill="#1CA8B4"/>
<rect x="157.18" y="34.3848" width="12.7826" height="27.6956" rx="5" transform="rotate(-164.27 157.18 34.3848)" fill="#1CA8B4"/>
<rect x="27.6411" y="147" width="12.7826" height="27.6956" rx="5" transform="rotate(67.0955 27.6411 147)" fill="#AAAAAA"/>
<rect x="39.7192" y="175.328" width="12.7826" height="27.6956" rx="5" transform="rotate(49.9716 39.7192 175.328)" fill="#AAAAAA"/>
<rect x="59.2114" y="198.314" width="12.7826" height="27.6956" rx="5" transform="rotate(30.7372 59.2114 198.314)" fill="#AAAAAA"/>
<rect x="86.3599" y="213.16" width="12.7826" height="27.6956" rx="5" transform="rotate(15.7305 86.3599 213.16)" fill="#AAAAAA"/>
<rect x="98.3911" y="29.7734" width="12.7826" height="27.6956" rx="5" transform="rotate(157.096 98.3911 29.7734)" fill="#AAAAAA"/>
<rect x="70.0942" y="41.8359" width="12.7826" height="27.6956" rx="5" transform="rotate(139.972 70.0942 41.8359)" fill="#AAAAAA"/>
<rect x="47.0786" y="61.3379" width="12.7826" height="27.6956" rx="5" transform="rotate(120.737 47.0786 61.3379)" fill="#AAAAAA"/>
<rect x="32.2271" y="88.4805" width="12.7826" height="27.6956" rx="5" transform="rotate(105.73 32.2271 88.4805)" fill="#AAAAAA"/>
<rect x="217.309" y="129.955" width="12.7826" height="27.6956" rx="5" transform="rotate(-90 217.309 129.955)" fill="#AAAAAA"/>
</svg>
