<svg width="245" height="248" viewBox="0 0 245 248" fill="none" xmlns="http://www.w3.org/2000/svg">
<rect x="115.012" y="219.436" width="12.7826" height="27.6956" rx="5" fill="#AAAAAA"/>
<rect x="27.6958" y="117.174" width="12.7826" height="27.6956" rx="5" transform="rotate(90 27.6958 117.174)" fill="#AAAAAA"/>
<rect x="127.813" y="27.6953" width="12.7826" height="27.6956" rx="5" transform="rotate(180 127.813 27.6953)" fill="#1CA8B4"/>
<rect x="144.743" y="218.012" width="12.7826" height="27.6956" rx="5" transform="rotate(-22.9045 144.743 218.012)" fill="#AAAAAA"/>
<rect x="173.114" y="205.949" width="12.7826" height="27.6956" rx="5" transform="rotate(-40.0284 173.114 205.949)" fill="#1CA8B4"/>
<rect x="196.086" y="186.447" width="12.7826" height="27.6956" rx="5" transform="rotate(-59.2628 196.086 186.447)" fill="#1CA8B4"/>
<rect x="210.911" y="159.305" width="12.7826" height="27.6956" rx="5" transform="rotate(-74.2695 210.911 159.305)" fill="#1CA8B4"/>
<rect x="215.868" y="100.545" width="12.7826" height="27.6956" rx="5" transform="rotate(-112.904 215.868 100.545)" fill="#1CA8B4"/>
<rect x="203.848" y="72.2168" width="12.7826" height="27.6956" rx="5" transform="rotate(-130.028 203.848 72.2168)" fill="#1CA8B4"/>
<rect x="184.278" y="49.2324" width="12.7826" height="27.6956" rx="5" transform="rotate(-149.263 184.278 49.2324)" fill="#1CA8B4"/>
<rect x="157.18" y="34.3848" width="12.7826" height="27.6956" rx="5" transform="rotate(-164.27 157.18 34.3848)" fill="#1CA8B4"/>
<rect x="27.6411" y="147" width="12.7826" height="27.6956" rx="5" transform="rotate(67.0955 27.6411 147)" fill="#AAAAAA"/>
<rect x="39.7153" y="175.328" width="12.7826" height="27.6956" rx="5" transform="rotate(49.9716 39.7153 175.328)" fill="#AAAAAA"/>
<rect x="59.2114" y="198.314" width="12.7826" height="27.6956" rx="5" transform="rotate(30.7372 59.2114 198.314)" fill="#AAAAAA"/>
<rect x="86.3638" y="213.16" width="12.7826" height="27.6956" rx="5" transform="rotate(15.7305 86.3638 213.16)" fill="#AAAAAA"/>
<rect x="98.3911" y="29.7734" width="12.7826" height="27.6956" rx="5" transform="rotate(157.096 98.3911 29.7734)" fill="#AAAAAA"/>
<rect x="70.0942" y="41.8359" width="12.7826" height="27.6956" rx="5" transform="rotate(139.972 70.0942 41.8359)" fill="#AAAAAA"/>
<rect x="47.0781" y="61.3379" width="12.7826" height="27.6956" rx="5" transform="rotate(120.737 47.0781 61.3379)" fill="#AAAAAA"/>
<rect x="32.2231" y="88.4805" width="12.7826" height="27.6956" rx="5" transform="rotate(105.73 32.2231 88.4805)" fill="#AAAAAA"/>
<rect x="217.309" y="129.957" width="12.7826" height="27.6956" rx="5" transform="rotate(-90 217.309 129.957)" fill="#1CA8B4"/>
<path d="M72.5305 132.845V128.795L88.0555 108.5H94.3105L79.0105 128.795L76.0855 127.895H101.06V132.845H72.5305ZM89.8105 140V132.845L89.9905 127.895V121.55H95.4805V140H89.8105ZM113.962 140.45C111.742 140.45 109.567 140.135 107.437 139.505C105.337 138.845 103.567 137.945 102.127 136.805L104.602 132.26C105.742 133.19 107.122 133.94 108.742 134.51C110.392 135.08 112.102 135.365 113.872 135.365C115.942 135.365 117.562 134.93 118.732 134.06C119.932 133.19 120.532 132.02 120.532 130.55C120.532 129.56 120.277 128.69 119.767 127.94C119.287 127.19 118.417 126.62 117.157 126.23C115.927 125.84 114.232 125.645 112.072 125.645H104.467L106.087 108.5H124.582V113.405H108.247L111.307 110.615L110.092 123.44L107.032 120.695H113.377C116.497 120.695 119.002 121.115 120.892 121.955C122.812 122.765 124.207 123.905 125.077 125.375C125.977 126.815 126.427 128.465 126.427 130.325C126.427 132.155 125.977 133.835 125.077 135.365C124.177 136.895 122.797 138.125 120.937 139.055C119.107 139.985 116.782 140.45 113.962 140.45ZM133.772 140L155.282 108.5H159.692L138.182 140H133.772ZM136.382 125.465C134.912 125.465 133.607 125.105 132.467 124.385C131.327 123.665 130.442 122.66 129.812 121.37C129.182 120.08 128.867 118.565 128.867 116.825C128.867 115.085 129.182 113.57 129.812 112.28C130.442 110.99 131.327 109.985 132.467 109.265C133.607 108.545 134.912 108.185 136.382 108.185C137.912 108.185 139.232 108.545 140.342 109.265C141.482 109.985 142.367 110.99 142.997 112.28C143.627 113.57 143.942 115.085 143.942 116.825C143.942 118.565 143.627 120.08 142.997 121.37C142.367 122.66 141.482 123.665 140.342 124.385C139.232 125.105 137.912 125.465 136.382 125.465ZM136.427 122.315C137.627 122.315 138.557 121.85 139.217 120.92C139.907 119.96 140.252 118.595 140.252 116.825C140.252 115.055 139.907 113.705 139.217 112.775C138.557 111.815 137.627 111.335 136.427 111.335C135.227 111.335 134.267 111.815 133.547 112.775C132.857 113.735 132.512 115.085 132.512 116.825C132.512 118.565 132.857 119.915 133.547 120.875C134.267 121.835 135.227 122.315 136.427 122.315ZM157.037 140.315C155.567 140.315 154.262 139.955 153.122 139.235C151.982 138.515 151.097 137.51 150.467 136.22C149.837 134.93 149.522 133.415 149.522 131.675C149.522 129.935 149.837 128.42 150.467 127.13C151.097 125.84 151.982 124.835 153.122 124.115C154.262 123.395 155.567 123.035 157.037 123.035C158.567 123.035 159.887 123.395 160.997 124.115C162.137 124.835 163.022 125.84 163.652 127.13C164.282 128.42 164.597 129.935 164.597 131.675C164.597 133.415 164.282 134.93 163.652 136.22C163.022 137.51 162.137 138.515 160.997 139.235C159.887 139.955 158.567 140.315 157.037 140.315ZM157.037 137.165C158.237 137.165 159.182 136.685 159.872 135.725C160.562 134.765 160.907 133.415 160.907 131.675C160.907 129.935 160.562 128.585 159.872 127.625C159.182 126.665 158.237 126.185 157.037 126.185C155.867 126.185 154.922 126.665 154.202 127.625C153.512 128.555 153.167 129.905 153.167 131.675C153.167 133.445 153.512 134.81 154.202 135.77C154.922 136.7 155.867 137.165 157.037 137.165Z" fill="#1CA8B4"/>
</svg>
