<svg width="245" height="248" viewBox="0 0 245 248" fill="none" xmlns="http://www.w3.org/2000/svg">
<rect x="115.012" y="219.436" width="12.7826" height="27.6956" rx="5" fill="#1CA8B4"/>
<rect x="27.6958" y="117.174" width="12.7826" height="27.6956" rx="5" transform="rotate(90 27.6958 117.174)" fill="#AAAAAA"/>
<rect x="127.813" y="27.6953" width="12.7826" height="27.6956" rx="5" transform="rotate(180 127.813 27.6953)" fill="#1CA8B4"/>
<rect x="144.743" y="218.012" width="12.7826" height="27.6956" rx="5" transform="rotate(-22.9045 144.743 218.012)" fill="#1CA8B4"/>
<rect x="173.114" y="205.949" width="12.7826" height="27.6956" rx="5" transform="rotate(-40.0284 173.114 205.949)" fill="#1CA8B4"/>
<rect x="196.086" y="186.447" width="12.7826" height="27.6956" rx="5" transform="rotate(-59.2628 196.086 186.447)" fill="#1CA8B4"/>
<rect x="210.911" y="159.305" width="12.7826" height="27.6956" rx="5" transform="rotate(-74.2695 210.911 159.305)" fill="#1CA8B4"/>
<rect x="215.868" y="100.545" width="12.7826" height="27.6956" rx="5" transform="rotate(-112.904 215.868 100.545)" fill="#1CA8B4"/>
<rect x="203.848" y="72.2168" width="12.7826" height="27.6956" rx="5" transform="rotate(-130.028 203.848 72.2168)" fill="#1CA8B4"/>
<rect x="184.278" y="49.2324" width="12.7826" height="27.6956" rx="5" transform="rotate(-149.263 184.278 49.2324)" fill="#1CA8B4"/>
<rect x="157.18" y="34.3848" width="12.7826" height="27.6956" rx="5" transform="rotate(-164.27 157.18 34.3848)" fill="#1CA8B4"/>
<rect x="27.6411" y="147" width="12.7826" height="27.6956" rx="5" transform="rotate(67.0955 27.6411 147)" fill="#AAAAAA"/>
<rect x="39.7153" y="175.328" width="12.7826" height="27.6956" rx="5" transform="rotate(49.9716 39.7153 175.328)" fill="#AAAAAA"/>
<rect x="59.2114" y="198.314" width="12.7826" height="27.6956" rx="5" transform="rotate(30.7372 59.2114 198.314)" fill="#1CA8B4"/>
<rect x="86.3638" y="213.16" width="12.7826" height="27.6956" rx="5" transform="rotate(15.7305 86.3638 213.16)" fill="#1CA8B4"/>
<rect x="98.3911" y="29.7734" width="12.7826" height="27.6956" rx="5" transform="rotate(157.096 98.3911 29.7734)" fill="#AAAAAA"/>
<rect x="70.0942" y="41.8359" width="12.7826" height="27.6956" rx="5" transform="rotate(139.972 70.0942 41.8359)" fill="#AAAAAA"/>
<rect x="47.0781" y="61.3379" width="12.7826" height="27.6956" rx="5" transform="rotate(120.737 47.0781 61.3379)" fill="#AAAAAA"/>
<rect x="32.2231" y="88.4805" width="12.7826" height="27.6956" rx="5" transform="rotate(105.73 32.2231 88.4805)" fill="#AAAAAA"/>
<rect x="217.309" y="129.957" width="12.7826" height="27.6956" rx="5" transform="rotate(-90 217.309 129.957)" fill="#1CA8B4"/>
<path d="M85.6155 140.45C82.7655 140.45 80.3205 139.85 78.2805 138.65C76.2405 137.42 74.6805 135.65 73.6005 133.34C72.5205 131.03 71.9805 128.18 71.9805 124.79C71.9805 121.19 72.6255 118.145 73.9155 115.655C75.2355 113.165 77.0505 111.275 79.3605 109.985C81.7005 108.695 84.3855 108.05 87.4155 108.05C89.0055 108.05 90.5205 108.215 91.9605 108.545C93.4305 108.875 94.6755 109.385 95.6955 110.075L93.5355 114.485C92.6655 113.915 91.7205 113.525 90.7005 113.315C89.7105 113.075 88.6605 112.955 87.5505 112.955C84.5805 112.955 82.2255 113.87 80.4855 115.7C78.7455 117.53 77.8755 120.23 77.8755 123.8C77.8755 124.37 77.8905 125.045 77.9205 125.825C77.9505 126.575 78.0555 127.34 78.2355 128.12L76.4355 126.14C76.9755 124.91 77.7105 123.89 78.6405 123.08C79.6005 122.24 80.7255 121.61 82.0155 121.19C83.3355 120.77 84.7605 120.56 86.2905 120.56C88.3605 120.56 90.2055 120.965 91.8255 121.775C93.4455 122.555 94.7355 123.68 95.6955 125.15C96.6555 126.59 97.1355 128.285 97.1355 130.235C97.1355 132.305 96.6255 134.105 95.6055 135.635C94.5855 137.165 93.2055 138.35 91.4655 139.19C89.7255 140.03 87.7755 140.45 85.6155 140.45ZM85.3005 135.86C86.5005 135.86 87.5655 135.65 88.4955 135.23C89.4255 134.78 90.1455 134.15 90.6555 133.34C91.1955 132.53 91.4655 131.585 91.4655 130.505C91.4655 128.855 90.8955 127.55 89.7555 126.59C88.6155 125.63 87.0855 125.15 85.1655 125.15C83.9055 125.15 82.7955 125.39 81.8355 125.87C80.9055 126.32 80.1555 126.95 79.5855 127.76C79.0455 128.57 78.7755 129.5 78.7755 130.55C78.7755 131.51 79.0305 132.395 79.5405 133.205C80.0505 134.015 80.7855 134.66 81.7455 135.14C82.7355 135.62 83.9205 135.86 85.3005 135.86ZM110.633 140.45C108.413 140.45 106.238 140.135 104.108 139.505C102.008 138.845 100.238 137.945 98.7984 136.805L101.273 132.26C102.413 133.19 103.793 133.94 105.413 134.51C107.063 135.08 108.773 135.365 110.543 135.365C112.613 135.365 114.233 134.93 115.403 134.06C116.603 133.19 117.203 132.02 117.203 130.55C117.203 129.56 116.948 128.69 116.438 127.94C115.958 127.19 115.088 126.62 113.828 126.23C112.598 125.84 110.903 125.645 108.743 125.645H101.138L102.758 108.5H121.253V113.405H104.918L107.978 110.615L106.763 123.44L103.703 120.695H110.048C113.168 120.695 115.673 121.115 117.563 121.955C119.483 122.765 120.878 123.905 121.748 125.375C122.648 126.815 123.098 128.465 123.098 130.325C123.098 132.155 122.648 133.835 121.748 135.365C120.848 136.895 119.468 138.125 117.608 139.055C115.778 139.985 113.453 140.45 110.633 140.45ZM130.443 140L151.953 108.5H156.363L134.853 140H130.443ZM133.053 125.465C131.583 125.465 130.278 125.105 129.138 124.385C127.998 123.665 127.113 122.66 126.483 121.37C125.853 120.08 125.538 118.565 125.538 116.825C125.538 115.085 125.853 113.57 126.483 112.28C127.113 110.99 127.998 109.985 129.138 109.265C130.278 108.545 131.583 108.185 133.053 108.185C134.583 108.185 135.903 108.545 137.013 109.265C138.153 109.985 139.038 110.99 139.668 112.28C140.298 113.57 140.613 115.085 140.613 116.825C140.613 118.565 140.298 120.08 139.668 121.37C139.038 122.66 138.153 123.665 137.013 124.385C135.903 125.105 134.583 125.465 133.053 125.465ZM133.098 122.315C134.298 122.315 135.228 121.85 135.888 120.92C136.578 119.96 136.923 118.595 136.923 116.825C136.923 115.055 136.578 113.705 135.888 112.775C135.228 111.815 134.298 111.335 133.098 111.335C131.898 111.335 130.938 111.815 130.218 112.775C129.528 113.735 129.183 115.085 129.183 116.825C129.183 118.565 129.528 119.915 130.218 120.875C130.938 121.835 131.898 122.315 133.098 122.315ZM153.708 140.315C152.238 140.315 150.933 139.955 149.793 139.235C148.653 138.515 147.768 137.51 147.138 136.22C146.508 134.93 146.193 133.415 146.193 131.675C146.193 129.935 146.508 128.42 147.138 127.13C147.768 125.84 148.653 124.835 149.793 124.115C150.933 123.395 152.238 123.035 153.708 123.035C155.238 123.035 156.558 123.395 157.668 124.115C158.808 124.835 159.693 125.84 160.323 127.13C160.953 128.42 161.268 129.935 161.268 131.675C161.268 133.415 160.953 134.93 160.323 136.22C159.693 137.51 158.808 138.515 157.668 139.235C156.558 139.955 155.238 140.315 153.708 140.315ZM153.708 137.165C154.908 137.165 155.853 136.685 156.543 135.725C157.233 134.765 157.578 133.415 157.578 131.675C157.578 129.935 157.233 128.585 156.543 127.625C155.853 126.665 154.908 126.185 153.708 126.185C152.538 126.185 151.593 126.665 150.873 127.625C150.183 128.555 149.838 129.905 149.838 131.675C149.838 133.445 150.183 134.81 150.873 135.77C151.593 136.7 152.538 137.165 153.708 137.165Z" fill="#1CA8B4"/>
</svg>
