<svg width="245" height="248" viewBox="0 0 245 248" fill="none" xmlns="http://www.w3.org/2000/svg">
<rect x="115.012" y="219.436" width="12.7826" height="27.6956" rx="5" fill="#AAAAAA"/>
<rect x="27.6958" y="117.174" width="12.7826" height="27.6956" rx="5" transform="rotate(90 27.6958 117.174)" fill="#AAAAAA"/>
<rect x="127.813" y="27.6953" width="12.7826" height="27.6956" rx="5" transform="rotate(180 127.813 27.6953)" fill="#1CA8B4"/>
<rect x="144.743" y="218.012" width="12.7826" height="27.6956" rx="5" transform="rotate(-22.9045 144.743 218.012)" fill="#AAAAAA"/>
<rect x="173.114" y="205.949" width="12.7826" height="27.6956" rx="5" transform="rotate(-40.0284 173.114 205.949)" fill="#AAAAAA"/>
<rect x="196.086" y="186.447" width="12.7826" height="27.6956" rx="5" transform="rotate(-59.2628 196.086 186.447)" fill="#AAAAAA"/>
<rect x="210.911" y="159.305" width="12.7826" height="27.6956" rx="5" transform="rotate(-74.2695 210.911 159.305)" fill="#AAAAAA"/>
<rect x="215.868" y="100.545" width="12.7826" height="27.6956" rx="5" transform="rotate(-112.904 215.868 100.545)" fill="#1CA8B4"/>
<rect x="203.848" y="72.2168" width="12.7826" height="27.6956" rx="5" transform="rotate(-130.028 203.848 72.2168)" fill="#1CA8B4"/>
<rect x="184.278" y="49.2324" width="12.7826" height="27.6956" rx="5" transform="rotate(-149.263 184.278 49.2324)" fill="#1CA8B4"/>
<rect x="157.18" y="34.3848" width="12.7826" height="27.6956" rx="5" transform="rotate(-164.27 157.18 34.3848)" fill="#1CA8B4"/>
<rect x="27.6411" y="147" width="12.7826" height="27.6956" rx="5" transform="rotate(67.0955 27.6411 147)" fill="#AAAAAA"/>
<rect x="39.7153" y="175.328" width="12.7826" height="27.6956" rx="5" transform="rotate(49.9716 39.7153 175.328)" fill="#AAAAAA"/>
<rect x="59.2114" y="198.314" width="12.7826" height="27.6956" rx="5" transform="rotate(30.7372 59.2114 198.314)" fill="#AAAAAA"/>
<rect x="86.3638" y="213.16" width="12.7826" height="27.6956" rx="5" transform="rotate(15.7305 86.3638 213.16)" fill="#AAAAAA"/>
<rect x="98.3911" y="29.7734" width="12.7826" height="27.6956" rx="5" transform="rotate(157.096 98.3911 29.7734)" fill="#AAAAAA"/>
<rect x="70.0942" y="41.8359" width="12.7826" height="27.6956" rx="5" transform="rotate(139.972 70.0942 41.8359)" fill="#AAAAAA"/>
<rect x="47.0781" y="61.3379" width="12.7826" height="27.6956" rx="5" transform="rotate(120.737 47.0781 61.3379)" fill="#AAAAAA"/>
<rect x="32.2231" y="88.4805" width="12.7826" height="27.6956" rx="5" transform="rotate(105.73 32.2231 88.4805)" fill="#AAAAAA"/>
<rect x="217.309" y="129.957" width="12.7826" height="27.6956" rx="5" transform="rotate(-90 217.309 129.957)" fill="#AAAAAA"/>
<path d="M72.5755 140V136.085L85.0855 124.205C86.1355 123.215 86.9155 122.345 87.4255 121.595C87.9355 120.845 88.2655 120.155 88.4155 119.525C88.5955 118.865 88.6855 118.25 88.6855 117.68C88.6855 116.24 88.1905 115.13 87.2005 114.35C86.2105 113.54 84.7555 113.135 82.8355 113.135C81.3055 113.135 79.9105 113.405 78.6505 113.945C77.4205 114.485 76.3555 115.31 75.4555 116.42L71.3605 113.27C72.5905 111.62 74.2405 110.345 76.3105 109.445C78.4105 108.515 80.7505 108.05 83.3305 108.05C85.6105 108.05 87.5905 108.425 89.2705 109.175C90.9805 109.895 92.2855 110.93 93.1855 112.28C94.1155 113.63 94.5805 115.235 94.5805 117.095C94.5805 118.115 94.4455 119.135 94.1755 120.155C93.9055 121.145 93.3955 122.195 92.6455 123.305C91.8955 124.415 90.8005 125.66 89.3605 127.04L78.6055 137.255L77.3905 135.05H95.7955V140H72.5755ZM109.612 140.45C107.392 140.45 105.217 140.135 103.087 139.505C100.987 138.845 99.2169 137.945 97.7769 136.805L100.252 132.26C101.392 133.19 102.772 133.94 104.392 134.51C106.042 135.08 107.752 135.365 109.522 135.365C111.592 135.365 113.212 134.93 114.382 134.06C115.582 133.19 116.182 132.02 116.182 130.55C116.182 129.56 115.927 128.69 115.417 127.94C114.937 127.19 114.067 126.62 112.807 126.23C111.577 125.84 109.882 125.645 107.722 125.645H100.117L101.737 108.5H120.232V113.405H103.897L106.957 110.615L105.742 123.44L102.682 120.695H109.027C112.147 120.695 114.652 121.115 116.542 121.955C118.462 122.765 119.857 123.905 120.727 125.375C121.627 126.815 122.077 128.465 122.077 130.325C122.077 132.155 121.627 133.835 120.727 135.365C119.827 136.895 118.447 138.125 116.587 139.055C114.757 139.985 112.432 140.45 109.612 140.45ZM142.298 140L163.808 108.5H168.218L146.708 140H142.298ZM144.908 125.465C143.438 125.465 142.133 125.105 140.993 124.385C139.853 123.665 138.968 122.66 138.338 121.37C137.708 120.08 137.393 118.565 137.393 116.825C137.393 115.085 137.708 113.57 138.338 112.28C138.968 110.99 139.853 109.985 140.993 109.265C142.133 108.545 143.438 108.185 144.908 108.185C146.438 108.185 147.758 108.545 148.868 109.265C150.008 109.985 150.893 110.99 151.523 112.28C152.153 113.57 152.468 115.085 152.468 116.825C152.468 118.565 152.153 120.08 151.523 121.37C150.893 122.66 150.008 123.665 148.868 124.385C147.758 125.105 146.438 125.465 144.908 125.465ZM144.953 122.315C146.153 122.315 147.083 121.85 147.743 120.92C148.433 119.96 148.778 118.595 148.778 116.825C148.778 115.055 148.433 113.705 147.743 112.775C147.083 111.815 146.153 111.335 144.953 111.335C143.753 111.335 142.793 111.815 142.073 112.775C141.383 113.735 141.038 115.085 141.038 116.825C141.038 118.565 141.383 119.915 142.073 120.875C142.793 121.835 143.753 122.315 144.953 122.315ZM165.563 140.315C164.093 140.315 162.788 139.955 161.648 139.235C160.508 138.515 159.623 137.51 158.993 136.22C158.363 134.93 158.048 133.415 158.048 131.675C158.048 129.935 158.363 128.42 158.993 127.13C159.623 125.84 160.508 124.835 161.648 124.115C162.788 123.395 164.093 123.035 165.563 123.035C167.093 123.035 168.413 123.395 169.523 124.115C170.663 124.835 171.548 125.84 172.178 127.13C172.808 128.42 173.123 129.935 173.123 131.675C173.123 133.415 172.808 134.93 172.178 136.22C171.548 137.51 170.663 138.515 169.523 139.235C168.413 139.955 167.093 140.315 165.563 140.315ZM165.563 137.165C166.763 137.165 167.708 136.685 168.398 135.725C169.088 134.765 169.433 133.415 169.433 131.675C169.433 129.935 169.088 128.585 168.398 127.625C167.708 126.665 166.763 126.185 165.563 126.185C164.393 126.185 163.448 126.665 162.728 127.625C162.038 128.555 161.693 129.905 161.693 131.675C161.693 133.445 162.038 134.81 162.728 135.77C163.448 136.7 164.393 137.165 165.563 137.165Z" fill="#1CA8B4"/>
</svg>
