<svg width="245" height="248" viewBox="0 0 245 248" fill="none" xmlns="http://www.w3.org/2000/svg">
<rect x="115.012" y="219.436" width="12.7826" height="27.6956" rx="5" fill="#AAAAAA"/>
<rect x="27.6958" y="117.174" width="12.7826" height="27.6956" rx="5" transform="rotate(90 27.6958 117.174)" fill="#AAAAAA"/>
<rect x="127.813" y="27.6953" width="12.7826" height="27.6956" rx="5" transform="rotate(180 127.813 27.6953)" fill="#1CA8B4"/>
<rect x="144.743" y="218.012" width="12.7826" height="27.6956" rx="5" transform="rotate(-22.9045 144.743 218.012)" fill="#AAAAAA"/>
<rect x="173.114" y="205.949" width="12.7826" height="27.6956" rx="5" transform="rotate(-40.0284 173.114 205.949)" fill="#AAAAAA"/>
<rect x="196.086" y="186.447" width="12.7826" height="27.6956" rx="5" transform="rotate(-59.2628 196.086 186.447)" fill="#AAAAAA"/>
<rect x="210.911" y="159.305" width="12.7826" height="27.6956" rx="5" transform="rotate(-74.2695 210.911 159.305)" fill="#AAAAAA"/>
<rect x="215.868" y="100.545" width="12.7826" height="27.6956" rx="5" transform="rotate(-112.904 215.868 100.545)" fill="#1CA8B4"/>
<rect x="203.848" y="72.2168" width="12.7826" height="27.6956" rx="5" transform="rotate(-130.028 203.848 72.2168)" fill="#1CA8B4"/>
<rect x="184.278" y="49.2324" width="12.7826" height="27.6956" rx="5" transform="rotate(-149.263 184.278 49.2324)" fill="#1CA8B4"/>
<rect x="157.18" y="34.3848" width="12.7826" height="27.6956" rx="5" transform="rotate(-164.27 157.18 34.3848)" fill="#1CA8B4"/>
<rect x="27.6411" y="147" width="12.7826" height="27.6956" rx="5" transform="rotate(67.0955 27.6411 147)" fill="#AAAAAA"/>
<rect x="39.7153" y="175.328" width="12.7826" height="27.6956" rx="5" transform="rotate(49.9716 39.7153 175.328)" fill="#AAAAAA"/>
<rect x="59.2114" y="198.314" width="12.7826" height="27.6956" rx="5" transform="rotate(30.7372 59.2114 198.314)" fill="#AAAAAA"/>
<rect x="86.3638" y="213.16" width="12.7826" height="27.6956" rx="5" transform="rotate(15.7305 86.3638 213.16)" fill="#AAAAAA"/>
<rect x="98.3911" y="29.7734" width="12.7826" height="27.6956" rx="5" transform="rotate(157.096 98.3911 29.7734)" fill="#AAAAAA"/>
<rect x="70.0942" y="41.8359" width="12.7826" height="27.6956" rx="5" transform="rotate(139.972 70.0942 41.8359)" fill="#AAAAAA"/>
<rect x="47.0781" y="61.3379" width="12.7826" height="27.6956" rx="5" transform="rotate(120.737 47.0781 61.3379)" fill="#AAAAAA"/>
<rect x="32.2231" y="88.4805" width="12.7826" height="27.6956" rx="5" transform="rotate(105.73 32.2231 88.4805)" fill="#AAAAAA"/>
<rect x="217.309" y="129.957" width="12.7826" height="27.6956" rx="5" transform="rotate(-90 217.309 129.957)" fill="#1CA8B4"/>
<path d="M82.8805 140.45C80.6605 140.45 78.4855 140.135 76.3555 139.505C74.2555 138.845 72.4855 137.945 71.0455 136.805L73.5655 132.26C74.7055 133.19 76.0855 133.94 77.7055 134.51C79.3255 135.08 81.0205 135.365 82.7905 135.365C84.8905 135.365 86.5255 134.945 87.6955 134.105C88.8655 133.235 89.4505 132.065 89.4505 130.595C89.4505 129.155 88.9105 128.015 87.8305 127.175C86.7505 126.335 85.0105 125.915 82.6105 125.915H79.7305V121.91L88.7305 111.2L89.4955 113.405H72.5755V108.5H94.0405V112.415L85.0405 123.125L81.9805 121.325H83.7355C87.6055 121.325 90.5005 122.195 92.4205 123.935C94.3705 125.645 95.3455 127.85 95.3455 130.55C95.3455 132.32 94.8955 133.955 93.9955 135.455C93.0955 136.955 91.7155 138.17 89.8555 139.1C88.0255 140 85.7005 140.45 82.8805 140.45ZM112.312 140.45C109.822 140.45 107.572 139.82 105.562 138.56C103.582 137.3 102.022 135.47 100.882 133.07C99.7419 130.64 99.1719 127.7 99.1719 124.25C99.1719 120.8 99.7419 117.875 100.882 115.475C102.022 113.045 103.582 111.2 105.562 109.94C107.572 108.68 109.822 108.05 112.312 108.05C114.832 108.05 117.082 108.68 119.062 109.94C121.042 111.2 122.602 113.045 123.742 115.475C124.912 117.875 125.497 120.8 125.497 124.25C125.497 127.7 124.912 130.64 123.742 133.07C122.602 135.47 121.042 137.3 119.062 138.56C117.082 139.82 114.832 140.45 112.312 140.45ZM112.312 135.365C113.782 135.365 115.057 134.975 116.137 134.195C117.217 133.385 118.057 132.155 118.657 130.505C119.287 128.855 119.602 126.77 119.602 124.25C119.602 121.7 119.287 119.615 118.657 117.995C118.057 116.345 117.217 115.13 116.137 114.35C115.057 113.54 113.782 113.135 112.312 113.135C110.902 113.135 109.642 113.54 108.532 114.35C107.452 115.13 106.597 116.345 105.967 117.995C105.367 119.615 105.067 121.7 105.067 124.25C105.067 126.77 105.367 128.855 105.967 130.505C106.597 132.155 107.452 133.385 108.532 134.195C109.642 134.975 110.902 135.365 112.312 135.365ZM133.86 140L155.37 108.5H159.78L138.27 140H133.86ZM136.47 125.465C135 125.465 133.695 125.105 132.555 124.385C131.415 123.665 130.53 122.66 129.9 121.37C129.27 120.08 128.955 118.565 128.955 116.825C128.955 115.085 129.27 113.57 129.9 112.28C130.53 110.99 131.415 109.985 132.555 109.265C133.695 108.545 135 108.185 136.47 108.185C138 108.185 139.32 108.545 140.43 109.265C141.57 109.985 142.455 110.99 143.085 112.28C143.715 113.57 144.03 115.085 144.03 116.825C144.03 118.565 143.715 120.08 143.085 121.37C142.455 122.66 141.57 123.665 140.43 124.385C139.32 125.105 138 125.465 136.47 125.465ZM136.515 122.315C137.715 122.315 138.645 121.85 139.305 120.92C139.995 119.96 140.34 118.595 140.34 116.825C140.34 115.055 139.995 113.705 139.305 112.775C138.645 111.815 137.715 111.335 136.515 111.335C135.315 111.335 134.355 111.815 133.635 112.775C132.945 113.735 132.6 115.085 132.6 116.825C132.6 118.565 132.945 119.915 133.635 120.875C134.355 121.835 135.315 122.315 136.515 122.315ZM157.125 140.315C155.655 140.315 154.35 139.955 153.21 139.235C152.07 138.515 151.185 137.51 150.555 136.22C149.925 134.93 149.61 133.415 149.61 131.675C149.61 129.935 149.925 128.42 150.555 127.13C151.185 125.84 152.07 124.835 153.21 124.115C154.35 123.395 155.655 123.035 157.125 123.035C158.655 123.035 159.975 123.395 161.085 124.115C162.225 124.835 163.11 125.84 163.74 127.13C164.37 128.42 164.685 129.935 164.685 131.675C164.685 133.415 164.37 134.93 163.74 136.22C163.11 137.51 162.225 138.515 161.085 139.235C159.975 139.955 158.655 140.315 157.125 140.315ZM157.125 137.165C158.325 137.165 159.27 136.685 159.96 135.725C160.65 134.765 160.995 133.415 160.995 131.675C160.995 129.935 160.65 128.585 159.96 127.625C159.27 126.665 158.325 126.185 157.125 126.185C155.955 126.185 155.01 126.665 154.29 127.625C153.6 128.555 153.255 129.905 153.255 131.675C153.255 133.445 153.6 134.81 154.29 135.77C155.01 136.7 155.955 137.165 157.125 137.165Z" fill="#1CA8B4"/>
</svg>
