<svg width="245" height="248" viewBox="0 0 245 248" fill="none" xmlns="http://www.w3.org/2000/svg">
<rect x="115.012" y="219.436" width="12.7826" height="27.6956" rx="5" fill="#AAAAAA"/>
<rect x="27.6958" y="117.174" width="12.7826" height="27.6956" rx="5" transform="rotate(90 27.6958 117.174)" fill="#AAAAAA"/>
<rect x="127.813" y="27.6953" width="12.7826" height="27.6956" rx="5" transform="rotate(180 127.813 27.6953)" fill="#1CA8B4"/>
<rect x="144.743" y="218.012" width="12.7826" height="27.6956" rx="5" transform="rotate(-22.9045 144.743 218.012)" fill="#AAAAAA"/>
<rect x="173.114" y="205.949" width="12.7826" height="27.6956" rx="5" transform="rotate(-40.0284 173.114 205.949)" fill="#AAAAAA"/>
<rect x="196.086" y="186.447" width="12.7826" height="27.6956" rx="5" transform="rotate(-59.2628 196.086 186.447)" fill="#AAAAAA"/>
<rect x="210.911" y="159.305" width="12.7826" height="27.6956" rx="5" transform="rotate(-74.2695 210.911 159.305)" fill="#1CA8B4"/>
<rect x="215.868" y="100.545" width="12.7826" height="27.6956" rx="5" transform="rotate(-112.904 215.868 100.545)" fill="#1CA8B4"/>
<rect x="203.848" y="72.2168" width="12.7826" height="27.6956" rx="5" transform="rotate(-130.028 203.848 72.2168)" fill="#1CA8B4"/>
<rect x="184.278" y="49.2324" width="12.7826" height="27.6956" rx="5" transform="rotate(-149.263 184.278 49.2324)" fill="#1CA8B4"/>
<rect x="157.18" y="34.3848" width="12.7826" height="27.6956" rx="5" transform="rotate(-164.27 157.18 34.3848)" fill="#1CA8B4"/>
<rect x="27.6411" y="147" width="12.7826" height="27.6956" rx="5" transform="rotate(67.0955 27.6411 147)" fill="#AAAAAA"/>
<rect x="39.7153" y="175.328" width="12.7826" height="27.6956" rx="5" transform="rotate(49.9716 39.7153 175.328)" fill="#AAAAAA"/>
<rect x="59.2114" y="198.314" width="12.7826" height="27.6956" rx="5" transform="rotate(30.7372 59.2114 198.314)" fill="#AAAAAA"/>
<rect x="86.3638" y="213.16" width="12.7826" height="27.6956" rx="5" transform="rotate(15.7305 86.3638 213.16)" fill="#AAAAAA"/>
<rect x="98.3911" y="29.7734" width="12.7826" height="27.6956" rx="5" transform="rotate(157.096 98.3911 29.7734)" fill="#AAAAAA"/>
<rect x="70.0942" y="41.8359" width="12.7826" height="27.6956" rx="5" transform="rotate(139.972 70.0942 41.8359)" fill="#AAAAAA"/>
<rect x="47.0781" y="61.3379" width="12.7826" height="27.6956" rx="5" transform="rotate(120.737 47.0781 61.3379)" fill="#AAAAAA"/>
<rect x="32.2231" y="88.4805" width="12.7826" height="27.6956" rx="5" transform="rotate(105.73 32.2231 88.4805)" fill="#AAAAAA"/>
<rect x="217.309" y="129.957" width="12.7826" height="27.6956" rx="5" transform="rotate(-90 217.309 129.957)" fill="#1CA8B4"/>
<path d="M82.8805 140.45C80.6605 140.45 78.4855 140.135 76.3555 139.505C74.2555 138.845 72.4855 137.945 71.0455 136.805L73.5655 132.26C74.7055 133.19 76.0855 133.94 77.7055 134.51C79.3255 135.08 81.0205 135.365 82.7905 135.365C84.8905 135.365 86.5255 134.945 87.6955 134.105C88.8655 133.235 89.4505 132.065 89.4505 130.595C89.4505 129.155 88.9105 128.015 87.8305 127.175C86.7505 126.335 85.0105 125.915 82.6105 125.915H79.7305V121.91L88.7305 111.2L89.4955 113.405H72.5755V108.5H94.0405V112.415L85.0405 123.125L81.9805 121.325H83.7355C87.6055 121.325 90.5005 122.195 92.4205 123.935C94.3705 125.645 95.3455 127.85 95.3455 130.55C95.3455 132.32 94.8955 133.955 93.9955 135.455C93.0955 136.955 91.7155 138.17 89.8555 139.1C88.0255 140 85.7005 140.45 82.8805 140.45ZM109.172 140.45C106.952 140.45 104.777 140.135 102.647 139.505C100.547 138.845 98.7774 137.945 97.3374 136.805L99.8124 132.26C100.952 133.19 102.332 133.94 103.952 134.51C105.602 135.08 107.312 135.365 109.082 135.365C111.152 135.365 112.772 134.93 113.942 134.06C115.142 133.19 115.742 132.02 115.742 130.55C115.742 129.56 115.487 128.69 114.977 127.94C114.497 127.19 113.627 126.62 112.367 126.23C111.137 125.84 109.442 125.645 107.282 125.645H99.6774L101.297 108.5H119.792V113.405H103.457L106.517 110.615L105.302 123.44L102.242 120.695H108.587C111.707 120.695 114.212 121.115 116.102 121.955C118.022 122.765 119.417 123.905 120.287 125.375C121.187 126.815 121.637 128.465 121.637 130.325C121.637 132.155 121.187 133.835 120.287 135.365C119.387 136.895 118.007 138.125 116.147 139.055C114.317 139.985 111.992 140.45 109.172 140.45ZM128.982 140L150.492 108.5H154.902L133.392 140H128.982ZM131.592 125.465C130.122 125.465 128.817 125.105 127.677 124.385C126.537 123.665 125.652 122.66 125.022 121.37C124.392 120.08 124.077 118.565 124.077 116.825C124.077 115.085 124.392 113.57 125.022 112.28C125.652 110.99 126.537 109.985 127.677 109.265C128.817 108.545 130.122 108.185 131.592 108.185C133.122 108.185 134.442 108.545 135.552 109.265C136.692 109.985 137.577 110.99 138.207 112.28C138.837 113.57 139.152 115.085 139.152 116.825C139.152 118.565 138.837 120.08 138.207 121.37C137.577 122.66 136.692 123.665 135.552 124.385C134.442 125.105 133.122 125.465 131.592 125.465ZM131.637 122.315C132.837 122.315 133.767 121.85 134.427 120.92C135.117 119.96 135.462 118.595 135.462 116.825C135.462 115.055 135.117 113.705 134.427 112.775C133.767 111.815 132.837 111.335 131.637 111.335C130.437 111.335 129.477 111.815 128.757 112.775C128.067 113.735 127.722 115.085 127.722 116.825C127.722 118.565 128.067 119.915 128.757 120.875C129.477 121.835 130.437 122.315 131.637 122.315ZM152.247 140.315C150.777 140.315 149.472 139.955 148.332 139.235C147.192 138.515 146.307 137.51 145.677 136.22C145.047 134.93 144.732 133.415 144.732 131.675C144.732 129.935 145.047 128.42 145.677 127.13C146.307 125.84 147.192 124.835 148.332 124.115C149.472 123.395 150.777 123.035 152.247 123.035C153.777 123.035 155.097 123.395 156.207 124.115C157.347 124.835 158.232 125.84 158.862 127.13C159.492 128.42 159.807 129.935 159.807 131.675C159.807 133.415 159.492 134.93 158.862 136.22C158.232 137.51 157.347 138.515 156.207 139.235C155.097 139.955 153.777 140.315 152.247 140.315ZM152.247 137.165C153.447 137.165 154.392 136.685 155.082 135.725C155.772 134.765 156.117 133.415 156.117 131.675C156.117 129.935 155.772 128.585 155.082 127.625C154.392 126.665 153.447 126.185 152.247 126.185C151.077 126.185 150.132 126.665 149.412 127.625C148.722 128.555 148.377 129.905 148.377 131.675C148.377 133.445 148.722 134.81 149.412 135.77C150.132 136.7 151.077 137.165 152.247 137.165Z" fill="#1CA8B4"/>
</svg>
