<svg width="245" height="248" viewBox="0 0 245 248" fill="none" xmlns="http://www.w3.org/2000/svg">
<rect x="115.012" y="219.436" width="12.7826" height="27.6956" rx="5" fill="#1CA8B4"/>
<rect x="27.6958" y="117.174" width="12.7826" height="27.6956" rx="5" transform="rotate(90 27.6958 117.174)" fill="#1CA8B4"/>
<rect x="127.813" y="27.6953" width="12.7826" height="27.6956" rx="5" transform="rotate(180 127.813 27.6953)" fill="#1CA8B4"/>
<rect x="144.743" y="218.012" width="12.7826" height="27.6956" rx="5" transform="rotate(-22.9045 144.743 218.012)" fill="#1CA8B4"/>
<rect x="173.114" y="205.949" width="12.7826" height="27.6956" rx="5" transform="rotate(-40.0284 173.114 205.949)" fill="#1CA8B4"/>
<rect x="196.086" y="186.447" width="12.7826" height="27.6956" rx="5" transform="rotate(-59.2628 196.086 186.447)" fill="#1CA8B4"/>
<rect x="210.911" y="159.305" width="12.7826" height="27.6956" rx="5" transform="rotate(-74.2695 210.911 159.305)" fill="#1CA8B4"/>
<rect x="215.868" y="100.545" width="12.7826" height="27.6956" rx="5" transform="rotate(-112.904 215.868 100.545)" fill="#1CA8B4"/>
<rect x="203.848" y="72.2168" width="12.7826" height="27.6956" rx="5" transform="rotate(-130.028 203.848 72.2168)" fill="#1CA8B4"/>
<rect x="184.278" y="49.2324" width="12.7826" height="27.6956" rx="5" transform="rotate(-149.263 184.278 49.2324)" fill="#1CA8B4"/>
<rect x="157.18" y="34.3848" width="12.7826" height="27.6956" rx="5" transform="rotate(-164.27 157.18 34.3848)" fill="#1CA8B4"/>
<rect x="27.6411" y="147" width="12.7826" height="27.6956" rx="5" transform="rotate(67.0955 27.6411 147)" fill="#1CA8B4"/>
<rect x="39.7153" y="175.328" width="12.7826" height="27.6956" rx="5" transform="rotate(49.9716 39.7153 175.328)" fill="#1CA8B4"/>
<rect x="59.2114" y="198.314" width="12.7826" height="27.6956" rx="5" transform="rotate(30.7372 59.2114 198.314)" fill="#1CA8B4"/>
<rect x="86.3638" y="213.16" width="12.7826" height="27.6956" rx="5" transform="rotate(15.7305 86.3638 213.16)" fill="#1CA8B4"/>
<rect x="98.3911" y="29.7734" width="12.7826" height="27.6956" rx="5" transform="rotate(157.096 98.3911 29.7734)" fill="#AAAAAA"/>
<rect x="70.0942" y="41.8359" width="12.7826" height="27.6956" rx="5" transform="rotate(139.972 70.0942 41.8359)" fill="#AAAAAA"/>
<rect x="47.0781" y="61.3379" width="12.7826" height="27.6956" rx="5" transform="rotate(120.737 47.0781 61.3379)" fill="#1CA8B4"/>
<rect x="32.2231" y="88.4805" width="12.7826" height="27.6956" rx="5" transform="rotate(105.73 32.2231 88.4805)" fill="#1CA8B4"/>
<rect x="217.309" y="129.957" width="12.7826" height="27.6956" rx="5" transform="rotate(-90 217.309 129.957)" fill="#1CA8B4"/>
<path d="M82.6005 108.05C85.4805 108.05 87.9255 108.665 89.9355 109.895C91.9755 111.095 93.5355 112.85 94.6155 115.16C95.6955 117.47 96.2355 120.32 96.2355 123.71C96.2355 127.31 95.5755 130.355 94.2555 132.845C92.9655 135.335 91.1655 137.225 88.8555 138.515C86.5455 139.805 83.8605 140.45 80.8005 140.45C79.2105 140.45 77.6955 140.285 76.2555 139.955C74.8155 139.625 73.5705 139.115 72.5205 138.425L74.6805 134.015C75.5505 134.585 76.4955 134.99 77.5155 135.23C78.5355 135.44 79.5855 135.545 80.6655 135.545C83.6355 135.545 85.9905 134.63 87.7305 132.8C89.4705 130.97 90.3405 128.27 90.3405 124.7C90.3405 124.13 90.3255 123.47 90.2955 122.72C90.2655 121.94 90.1605 121.16 89.9805 120.38L91.7805 122.36C91.2705 123.59 90.5355 124.625 89.5755 125.465C88.6155 126.275 87.4905 126.89 86.2005 127.31C84.9105 127.73 83.4855 127.94 81.9255 127.94C79.8855 127.94 78.0405 127.55 76.3905 126.77C74.7705 125.96 73.4805 124.835 72.5205 123.395C71.5605 121.925 71.0805 120.215 71.0805 118.265C71.0805 116.165 71.5905 114.365 72.6105 112.865C73.6305 111.335 75.0105 110.15 76.7505 109.31C78.5205 108.47 80.4705 108.05 82.6005 108.05ZM82.9155 112.64C81.7155 112.64 80.6505 112.865 79.7205 113.315C78.7905 113.735 78.0555 114.35 77.5155 115.16C77.0055 115.94 76.7505 116.885 76.7505 117.995C76.7505 119.645 77.3205 120.95 78.4605 121.91C79.6005 122.87 81.1305 123.35 83.0505 123.35C84.3105 123.35 85.4205 123.125 86.3805 122.675C87.3405 122.195 88.0905 121.55 88.6305 120.74C89.1705 119.9 89.4405 118.97 89.4405 117.95C89.4405 116.96 89.1855 116.075 88.6755 115.295C88.1655 114.485 87.4305 113.84 86.4705 113.36C85.5105 112.88 84.3255 112.64 82.9155 112.64ZM113.333 140.45C110.843 140.45 108.593 139.82 106.583 138.56C104.603 137.3 103.043 135.47 101.903 133.07C100.763 130.64 100.193 127.7 100.193 124.25C100.193 120.8 100.763 117.875 101.903 115.475C103.043 113.045 104.603 111.2 106.583 109.94C108.593 108.68 110.843 108.05 113.333 108.05C115.853 108.05 118.103 108.68 120.083 109.94C122.063 111.2 123.623 113.045 124.763 115.475C125.933 117.875 126.518 120.8 126.518 124.25C126.518 127.7 125.933 130.64 124.763 133.07C123.623 135.47 122.063 137.3 120.083 138.56C118.103 139.82 115.853 140.45 113.333 140.45ZM113.333 135.365C114.803 135.365 116.078 134.975 117.158 134.195C118.238 133.385 119.078 132.155 119.678 130.505C120.308 128.855 120.623 126.77 120.623 124.25C120.623 121.7 120.308 119.615 119.678 117.995C119.078 116.345 118.238 115.13 117.158 114.35C116.078 113.54 114.803 113.135 113.333 113.135C111.923 113.135 110.663 113.54 109.553 114.35C108.473 115.13 107.618 116.345 106.988 117.995C106.388 119.615 106.088 121.7 106.088 124.25C106.088 126.77 106.388 128.855 106.988 130.505C107.618 132.155 108.473 133.385 109.553 134.195C110.663 134.975 111.923 135.365 113.333 135.365ZM134.882 140L156.392 108.5H160.802L139.292 140H134.882ZM137.492 125.465C136.022 125.465 134.717 125.105 133.577 124.385C132.437 123.665 131.552 122.66 130.922 121.37C130.292 120.08 129.977 118.565 129.977 116.825C129.977 115.085 130.292 113.57 130.922 112.28C131.552 110.99 132.437 109.985 133.577 109.265C134.717 108.545 136.022 108.185 137.492 108.185C139.022 108.185 140.342 108.545 141.452 109.265C142.592 109.985 143.477 110.99 144.107 112.28C144.737 113.57 145.052 115.085 145.052 116.825C145.052 118.565 144.737 120.08 144.107 121.37C143.477 122.66 142.592 123.665 141.452 124.385C140.342 125.105 139.022 125.465 137.492 125.465ZM137.537 122.315C138.737 122.315 139.667 121.85 140.327 120.92C141.017 119.96 141.362 118.595 141.362 116.825C141.362 115.055 141.017 113.705 140.327 112.775C139.667 111.815 138.737 111.335 137.537 111.335C136.337 111.335 135.377 111.815 134.657 112.775C133.967 113.735 133.622 115.085 133.622 116.825C133.622 118.565 133.967 119.915 134.657 120.875C135.377 121.835 136.337 122.315 137.537 122.315ZM158.147 140.315C156.677 140.315 155.372 139.955 154.232 139.235C153.092 138.515 152.207 137.51 151.577 136.22C150.947 134.93 150.632 133.415 150.632 131.675C150.632 129.935 150.947 128.42 151.577 127.13C152.207 125.84 153.092 124.835 154.232 124.115C155.372 123.395 156.677 123.035 158.147 123.035C159.677 123.035 160.997 123.395 162.107 124.115C163.247 124.835 164.132 125.84 164.762 127.13C165.392 128.42 165.707 129.935 165.707 131.675C165.707 133.415 165.392 134.93 164.762 136.22C164.132 137.51 163.247 138.515 162.107 139.235C160.997 139.955 159.677 140.315 158.147 140.315ZM158.147 137.165C159.347 137.165 160.292 136.685 160.982 135.725C161.672 134.765 162.017 133.415 162.017 131.675C162.017 129.935 161.672 128.585 160.982 127.625C160.292 126.665 159.347 126.185 158.147 126.185C156.977 126.185 156.032 126.665 155.312 127.625C154.622 128.555 154.277 129.905 154.277 131.675C154.277 133.445 154.622 134.81 155.312 135.77C156.032 136.7 156.977 137.165 158.147 137.165Z" fill="#1CA8B4"/>
</svg>
