<svg width="245" height="248" viewBox="0 0 245 248" fill="none" xmlns="http://www.w3.org/2000/svg">
<rect x="115.012" y="219.436" width="12.7826" height="27.6956" rx="5" fill="#AAAAAA"/>
<rect x="27.6958" y="117.174" width="12.7826" height="27.6956" rx="5" transform="rotate(90 27.6958 117.174)" fill="#AAAAAA"/>
<rect x="127.813" y="27.6953" width="12.7826" height="27.6956" rx="5" transform="rotate(180 127.813 27.6953)" fill="#1CA8B4"/>
<rect x="144.743" y="218.012" width="12.7826" height="27.6956" rx="5" transform="rotate(-22.9045 144.743 218.012)" fill="#1CA8B4"/>
<rect x="173.114" y="205.949" width="12.7826" height="27.6956" rx="5" transform="rotate(-40.0284 173.114 205.949)" fill="#1CA8B4"/>
<rect x="196.086" y="186.447" width="12.7826" height="27.6956" rx="5" transform="rotate(-59.2628 196.086 186.447)" fill="#1CA8B4"/>
<rect x="210.911" y="159.305" width="12.7826" height="27.6956" rx="5" transform="rotate(-74.2695 210.911 159.305)" fill="#1CA8B4"/>
<rect x="215.868" y="100.545" width="12.7826" height="27.6956" rx="5" transform="rotate(-112.904 215.868 100.545)" fill="#1CA8B4"/>
<rect x="203.848" y="72.2168" width="12.7826" height="27.6956" rx="5" transform="rotate(-130.028 203.848 72.2168)" fill="#1CA8B4"/>
<rect x="184.278" y="49.2324" width="12.7826" height="27.6956" rx="5" transform="rotate(-149.263 184.278 49.2324)" fill="#1CA8B4"/>
<rect x="157.18" y="34.3848" width="12.7826" height="27.6956" rx="5" transform="rotate(-164.27 157.18 34.3848)" fill="#1CA8B4"/>
<rect x="27.6411" y="147" width="12.7826" height="27.6956" rx="5" transform="rotate(67.0955 27.6411 147)" fill="#AAAAAA"/>
<rect x="39.7153" y="175.328" width="12.7826" height="27.6956" rx="5" transform="rotate(49.9716 39.7153 175.328)" fill="#AAAAAA"/>
<rect x="59.2114" y="198.314" width="12.7826" height="27.6956" rx="5" transform="rotate(30.7372 59.2114 198.314)" fill="#AAAAAA"/>
<rect x="86.3638" y="213.16" width="12.7826" height="27.6956" rx="5" transform="rotate(15.7305 86.3638 213.16)" fill="#AAAAAA"/>
<rect x="98.3911" y="29.7734" width="12.7826" height="27.6956" rx="5" transform="rotate(157.096 98.3911 29.7734)" fill="#AAAAAA"/>
<rect x="70.0942" y="41.8359" width="12.7826" height="27.6956" rx="5" transform="rotate(139.972 70.0942 41.8359)" fill="#AAAAAA"/>
<rect x="47.0781" y="61.3379" width="12.7826" height="27.6956" rx="5" transform="rotate(120.737 47.0781 61.3379)" fill="#AAAAAA"/>
<rect x="32.2231" y="88.4805" width="12.7826" height="27.6956" rx="5" transform="rotate(105.73 32.2231 88.4805)" fill="#AAAAAA"/>
<rect x="217.309" y="129.957" width="12.7826" height="27.6956" rx="5" transform="rotate(-90 217.309 129.957)" fill="#1CA8B4"/>
<path d="M81.4205 140.45C79.2005 140.45 77.0255 140.135 74.8955 139.505C72.7955 138.845 71.0255 137.945 69.5855 136.805L72.0605 132.26C73.2005 133.19 74.5805 133.94 76.2005 134.51C77.8505 135.08 79.5605 135.365 81.3305 135.365C83.4005 135.365 85.0205 134.93 86.1905 134.06C87.3905 133.19 87.9905 132.02 87.9905 130.55C87.9905 129.56 87.7355 128.69 87.2255 127.94C86.7455 127.19 85.8755 126.62 84.6155 126.23C83.3855 125.84 81.6905 125.645 79.5305 125.645H71.9255L73.5455 108.5H92.0405V113.405H75.7055L78.7655 110.615L77.5505 123.44L74.4905 120.695H80.8355C83.9555 120.695 86.4605 121.115 88.3505 121.955C90.2705 122.765 91.6655 123.905 92.5355 125.375C93.4355 126.815 93.8855 128.465 93.8855 130.325C93.8855 132.155 93.4355 133.835 92.5355 135.365C91.6355 136.895 90.2555 138.125 88.3955 139.055C86.5655 139.985 84.2405 140.45 81.4205 140.45ZM110.4 140.45C107.91 140.45 105.66 139.82 103.65 138.56C101.67 137.3 100.11 135.47 98.9698 133.07C97.8298 130.64 97.2598 127.7 97.2598 124.25C97.2598 120.8 97.8298 117.875 98.9698 115.475C100.11 113.045 101.67 111.2 103.65 109.94C105.66 108.68 107.91 108.05 110.4 108.05C112.92 108.05 115.17 108.68 117.15 109.94C119.13 111.2 120.69 113.045 121.83 115.475C123 117.875 123.585 120.8 123.585 124.25C123.585 127.7 123 130.64 121.83 133.07C120.69 135.47 119.13 137.3 117.15 138.56C115.17 139.82 112.92 140.45 110.4 140.45ZM110.4 135.365C111.87 135.365 113.145 134.975 114.225 134.195C115.305 133.385 116.145 132.155 116.745 130.505C117.375 128.855 117.69 126.77 117.69 124.25C117.69 121.7 117.375 119.615 116.745 117.995C116.145 116.345 115.305 115.13 114.225 114.35C113.145 113.54 111.87 113.135 110.4 113.135C108.99 113.135 107.73 113.54 106.62 114.35C105.54 115.13 104.685 116.345 104.055 117.995C103.455 119.615 103.155 121.7 103.155 124.25C103.155 126.77 103.455 128.855 104.055 130.505C104.685 132.155 105.54 133.385 106.62 134.195C107.73 134.975 108.99 135.365 110.4 135.365ZM144.385 140L165.895 108.5H170.305L148.795 140H144.385ZM146.995 125.465C145.525 125.465 144.22 125.105 143.08 124.385C141.94 123.665 141.055 122.66 140.425 121.37C139.795 120.08 139.48 118.565 139.48 116.825C139.48 115.085 139.795 113.57 140.425 112.28C141.055 110.99 141.94 109.985 143.08 109.265C144.22 108.545 145.525 108.185 146.995 108.185C148.525 108.185 149.845 108.545 150.955 109.265C152.095 109.985 152.98 110.99 153.61 112.28C154.24 113.57 154.555 115.085 154.555 116.825C154.555 118.565 154.24 120.08 153.61 121.37C152.98 122.66 152.095 123.665 150.955 124.385C149.845 125.105 148.525 125.465 146.995 125.465ZM147.04 122.315C148.24 122.315 149.17 121.85 149.83 120.92C150.52 119.96 150.865 118.595 150.865 116.825C150.865 115.055 150.52 113.705 149.83 112.775C149.17 111.815 148.24 111.335 147.04 111.335C145.84 111.335 144.88 111.815 144.16 112.775C143.47 113.735 143.125 115.085 143.125 116.825C143.125 118.565 143.47 119.915 144.16 120.875C144.88 121.835 145.84 122.315 147.04 122.315ZM167.65 140.315C166.18 140.315 164.875 139.955 163.735 139.235C162.595 138.515 161.71 137.51 161.08 136.22C160.45 134.93 160.135 133.415 160.135 131.675C160.135 129.935 160.45 128.42 161.08 127.13C161.71 125.84 162.595 124.835 163.735 124.115C164.875 123.395 166.18 123.035 167.65 123.035C169.18 123.035 170.5 123.395 171.61 124.115C172.75 124.835 173.635 125.84 174.265 127.13C174.895 128.42 175.21 129.935 175.21 131.675C175.21 133.415 174.895 134.93 174.265 136.22C173.635 137.51 172.75 138.515 171.61 139.235C170.5 139.955 169.18 140.315 167.65 140.315ZM167.65 137.165C168.85 137.165 169.795 136.685 170.485 135.725C171.175 134.765 171.52 133.415 171.52 131.675C171.52 129.935 171.175 128.585 170.485 127.625C169.795 126.665 168.85 126.185 167.65 126.185C166.48 126.185 165.535 126.665 164.815 127.625C164.125 128.555 163.78 129.905 163.78 131.675C163.78 133.445 164.125 134.81 164.815 135.77C165.535 136.7 166.48 137.165 167.65 137.165Z" fill="#1CA8B4"/>
</svg>
