<svg width="245" height="248" viewBox="0 0 245 248" fill="none" xmlns="http://www.w3.org/2000/svg">
<rect x="115.012" y="219.436" width="12.7826" height="27.6956" rx="5" fill="#1CA8B4"/>
<rect x="27.6958" y="117.174" width="12.7826" height="27.6956" rx="5" transform="rotate(90 27.6958 117.174)" fill="#1CA8B4"/>
<rect x="127.813" y="27.6953" width="12.7826" height="27.6956" rx="5" transform="rotate(180 127.813 27.6953)" fill="#1CA8B4"/>
<rect x="144.743" y="218.012" width="12.7826" height="27.6956" rx="5" transform="rotate(-22.9045 144.743 218.012)" fill="#1CA8B4"/>
<rect x="173.114" y="205.949" width="12.7826" height="27.6956" rx="5" transform="rotate(-40.0284 173.114 205.949)" fill="#1CA8B4"/>
<rect x="196.086" y="186.447" width="12.7826" height="27.6956" rx="5" transform="rotate(-59.2628 196.086 186.447)" fill="#1CA8B4"/>
<rect x="210.911" y="159.305" width="12.7826" height="27.6956" rx="5" transform="rotate(-74.2695 210.911 159.305)" fill="#1CA8B4"/>
<rect x="215.868" y="100.545" width="12.7826" height="27.6956" rx="5" transform="rotate(-112.904 215.868 100.545)" fill="#1CA8B4"/>
<rect x="203.848" y="72.2168" width="12.7826" height="27.6956" rx="5" transform="rotate(-130.028 203.848 72.2168)" fill="#1CA8B4"/>
<rect x="184.278" y="49.2324" width="12.7826" height="27.6956" rx="5" transform="rotate(-149.263 184.278 49.2324)" fill="#1CA8B4"/>
<rect x="157.18" y="34.3848" width="12.7826" height="27.6956" rx="5" transform="rotate(-164.27 157.18 34.3848)" fill="#1CA8B4"/>
<rect x="27.6411" y="147" width="12.7826" height="27.6956" rx="5" transform="rotate(67.0955 27.6411 147)" fill="#1CA8B4"/>
<rect x="39.7153" y="175.328" width="12.7826" height="27.6956" rx="5" transform="rotate(49.9716 39.7153 175.328)" fill="#1CA8B4"/>
<rect x="59.2114" y="198.314" width="12.7826" height="27.6956" rx="5" transform="rotate(30.7372 59.2114 198.314)" fill="#1CA8B4"/>
<rect x="86.3638" y="213.16" width="12.7826" height="27.6956" rx="5" transform="rotate(15.7305 86.3638 213.16)" fill="#1CA8B4"/>
<rect x="98.3911" y="29.7734" width="12.7826" height="27.6956" rx="5" transform="rotate(157.096 98.3911 29.7734)" fill="#AAAAAA"/>
<rect x="70.0942" y="41.8359" width="12.7826" height="27.6956" rx="5" transform="rotate(139.972 70.0942 41.8359)" fill="#AAAAAA"/>
<rect x="47.0781" y="61.3379" width="12.7826" height="27.6956" rx="5" transform="rotate(120.737 47.0781 61.3379)" fill="#AAAAAA"/>
<rect x="32.2231" y="88.4805" width="12.7826" height="27.6956" rx="5" transform="rotate(105.73 32.2231 88.4805)" fill="#1CA8B4"/>
<rect x="217.309" y="129.957" width="12.7826" height="27.6956" rx="5" transform="rotate(-90 217.309 129.957)" fill="#1CA8B4"/>
<path d="M84.6255 140.45C82.0155 140.45 79.7505 140.06 77.8305 139.28C75.9105 138.5 74.4255 137.405 73.3755 135.995C72.3255 134.555 71.8005 132.875 71.8005 130.955C71.8005 129.035 72.3105 127.415 73.3305 126.095C74.3505 124.775 75.8205 123.77 77.7405 123.08C79.6605 122.39 81.9555 122.045 84.6255 122.045C87.2955 122.045 89.5905 122.39 91.5105 123.08C93.4605 123.77 94.9455 124.79 95.9655 126.14C97.0155 127.46 97.5405 129.065 97.5405 130.955C97.5405 132.875 97.0005 134.555 95.9205 135.995C94.8705 137.405 93.3705 138.5 91.4205 139.28C89.5005 140.06 87.2355 140.45 84.6255 140.45ZM84.6255 135.86C86.7855 135.86 88.4955 135.41 89.7555 134.51C91.0155 133.61 91.6455 132.365 91.6455 130.775C91.6455 129.215 91.0155 127.985 89.7555 127.085C88.4955 126.185 86.7855 125.735 84.6255 125.735C82.4655 125.735 80.7705 126.185 79.5405 127.085C78.3105 127.985 77.6955 129.215 77.6955 130.775C77.6955 132.365 78.3105 133.61 79.5405 134.51C80.7705 135.41 82.4655 135.86 84.6255 135.86ZM84.6255 125.105C82.1955 125.105 80.1105 124.79 78.3705 124.16C76.6305 123.5 75.2805 122.555 74.3205 121.325C73.3905 120.065 72.9255 118.565 72.9255 116.825C72.9255 115.025 73.4055 113.48 74.3655 112.19C75.3555 110.87 76.7355 109.85 78.5055 109.13C80.2755 108.41 82.3155 108.05 84.6255 108.05C86.9655 108.05 89.0205 108.41 90.7905 109.13C92.5605 109.85 93.9405 110.87 94.9305 112.19C95.9205 113.48 96.4155 115.025 96.4155 116.825C96.4155 118.565 95.9355 120.065 94.9755 121.325C94.0455 122.555 92.6955 123.5 90.9255 124.16C89.1555 124.79 87.0555 125.105 84.6255 125.105ZM84.6255 121.505C86.4855 121.505 87.9555 121.115 89.0355 120.335C90.1155 119.525 90.6555 118.445 90.6555 117.095C90.6555 115.685 90.1005 114.59 88.9905 113.81C87.8805 113.03 86.4255 112.64 84.6255 112.64C82.8255 112.64 81.3855 113.03 80.3055 113.81C79.2255 114.59 78.6855 115.685 78.6855 117.095C78.6855 118.445 79.2105 119.525 80.2605 120.335C81.3405 121.115 82.7955 121.505 84.6255 121.505ZM111.776 140.45C109.556 140.45 107.381 140.135 105.251 139.505C103.151 138.845 101.381 137.945 99.941 136.805L102.416 132.26C103.556 133.19 104.936 133.94 106.556 134.51C108.206 135.08 109.916 135.365 111.686 135.365C113.756 135.365 115.376 134.93 116.546 134.06C117.746 133.19 118.346 132.02 118.346 130.55C118.346 129.56 118.091 128.69 117.581 127.94C117.101 127.19 116.231 126.62 114.971 126.23C113.741 125.84 112.046 125.645 109.886 125.645H102.281L103.901 108.5H122.396V113.405H106.061L109.121 110.615L107.906 123.44L104.846 120.695H111.191C114.311 120.695 116.816 121.115 118.706 121.955C120.626 122.765 122.021 123.905 122.891 125.375C123.791 126.815 124.241 128.465 124.241 130.325C124.241 132.155 123.791 133.835 122.891 135.365C121.991 136.895 120.611 138.125 118.751 139.055C116.921 139.985 114.596 140.45 111.776 140.45ZM131.586 140L153.096 108.5H157.506L135.996 140H131.586ZM134.196 125.465C132.726 125.465 131.421 125.105 130.281 124.385C129.141 123.665 128.256 122.66 127.626 121.37C126.996 120.08 126.681 118.565 126.681 116.825C126.681 115.085 126.996 113.57 127.626 112.28C128.256 110.99 129.141 109.985 130.281 109.265C131.421 108.545 132.726 108.185 134.196 108.185C135.726 108.185 137.046 108.545 138.156 109.265C139.296 109.985 140.181 110.99 140.811 112.28C141.441 113.57 141.756 115.085 141.756 116.825C141.756 118.565 141.441 120.08 140.811 121.37C140.181 122.66 139.296 123.665 138.156 124.385C137.046 125.105 135.726 125.465 134.196 125.465ZM134.241 122.315C135.441 122.315 136.371 121.85 137.031 120.92C137.721 119.96 138.066 118.595 138.066 116.825C138.066 115.055 137.721 113.705 137.031 112.775C136.371 111.815 135.441 111.335 134.241 111.335C133.041 111.335 132.081 111.815 131.361 112.775C130.671 113.735 130.326 115.085 130.326 116.825C130.326 118.565 130.671 119.915 131.361 120.875C132.081 121.835 133.041 122.315 134.241 122.315ZM154.851 140.315C153.381 140.315 152.076 139.955 150.936 139.235C149.796 138.515 148.911 137.51 148.281 136.22C147.651 134.93 147.336 133.415 147.336 131.675C147.336 129.935 147.651 128.42 148.281 127.13C148.911 125.84 149.796 124.835 150.936 124.115C152.076 123.395 153.381 123.035 154.851 123.035C156.381 123.035 157.701 123.395 158.811 124.115C159.951 124.835 160.836 125.84 161.466 127.13C162.096 128.42 162.411 129.935 162.411 131.675C162.411 133.415 162.096 134.93 161.466 136.22C160.836 137.51 159.951 138.515 158.811 139.235C157.701 139.955 156.381 140.315 154.851 140.315ZM154.851 137.165C156.051 137.165 156.996 136.685 157.686 135.725C158.376 134.765 158.721 133.415 158.721 131.675C158.721 129.935 158.376 128.585 157.686 127.625C156.996 126.665 156.051 126.185 154.851 126.185C153.681 126.185 152.736 126.665 152.016 127.625C151.326 128.555 150.981 129.905 150.981 131.675C150.981 133.445 151.326 134.81 152.016 135.77C152.736 136.7 153.681 137.165 154.851 137.165Z" fill="#1CA8B4"/>
</svg>
