<svg width="245" height="248" viewBox="0 0 245 248" fill="none" xmlns="http://www.w3.org/2000/svg">
<rect x="115.012" y="219.436" width="12.7826" height="27.6956" rx="5" fill="#1CA8B4"/>
<rect x="27.6953" y="117.174" width="12.7826" height="27.6956" rx="5" transform="rotate(90 27.6953 117.174)" fill="#AAAAAA"/>
<rect x="127.812" y="27.6953" width="12.7826" height="27.6956" rx="5" transform="rotate(180 127.812 27.6953)" fill="#1CA8B4"/>
<rect x="144.743" y="218.012" width="12.7826" height="27.6956" rx="5" transform="rotate(-22.9045 144.743 218.012)" fill="#1CA8B4"/>
<rect x="173.113" y="205.949" width="12.7826" height="27.6956" rx="5" transform="rotate(-40.0284 173.113 205.949)" fill="#1CA8B4"/>
<rect x="196.086" y="186.447" width="12.7826" height="27.6956" rx="5" transform="rotate(-59.2628 196.086 186.447)" fill="#1CA8B4"/>
<rect x="210.91" y="159.305" width="12.7826" height="27.6956" rx="5" transform="rotate(-74.2695 210.91 159.305)" fill="#1CA8B4"/>
<rect x="215.867" y="100.545" width="12.7826" height="27.6956" rx="5" transform="rotate(-112.904 215.867 100.545)" fill="#1CA8B4"/>
<rect x="203.848" y="72.2168" width="12.7826" height="27.6956" rx="5" transform="rotate(-130.028 203.848 72.2168)" fill="#1CA8B4"/>
<rect x="184.277" y="49.2324" width="12.7826" height="27.6956" rx="5" transform="rotate(-149.263 184.277 49.2324)" fill="#1CA8B4"/>
<rect x="157.18" y="34.3848" width="12.7826" height="27.6956" rx="5" transform="rotate(-164.27 157.18 34.3848)" fill="#1CA8B4"/>
<rect x="27.6406" y="147" width="12.7826" height="27.6956" rx="5" transform="rotate(67.0955 27.6406 147)" fill="#AAAAAA"/>
<rect x="39.7148" y="175.328" width="12.7826" height="27.6956" rx="5" transform="rotate(49.9716 39.7148 175.328)" fill="#AAAAAA"/>
<rect x="59.2109" y="198.314" width="12.7826" height="27.6956" rx="5" transform="rotate(30.7372 59.2109 198.314)" fill="#AAAAAA"/>
<rect x="86.3633" y="213.16" width="12.7826" height="27.6956" rx="5" transform="rotate(15.7305 86.3633 213.16)" fill="#AAAAAA"/>
<rect x="98.3906" y="29.7734" width="12.7826" height="27.6956" rx="5" transform="rotate(157.096 98.3906 29.7734)" fill="#AAAAAA"/>
<rect x="70.0938" y="41.8359" width="12.7826" height="27.6956" rx="5" transform="rotate(139.972 70.0938 41.8359)" fill="#AAAAAA"/>
<rect x="47.0781" y="61.3379" width="12.7826" height="27.6956" rx="5" transform="rotate(120.737 47.0781 61.3379)" fill="#AAAAAA"/>
<rect x="32.2231" y="88.4805" width="12.7826" height="27.6956" rx="5" transform="rotate(105.73 32.2231 88.4805)" fill="#AAAAAA"/>
<rect x="217.309" y="129.957" width="12.7826" height="27.6956" rx="5" transform="rotate(-90 217.309 129.957)" fill="#1CA8B4"/>
<path d="M82.4205 140.45C80.2005 140.45 78.0255 140.135 75.8955 139.505C73.7955 138.845 72.0255 137.945 70.5855 136.805L73.0605 132.26C74.2005 133.19 75.5805 133.94 77.2005 134.51C78.8505 135.08 80.5605 135.365 82.3305 135.365C84.4005 135.365 86.0205 134.93 87.1905 134.06C88.3905 133.19 88.9905 132.02 88.9905 130.55C88.9905 129.56 88.7355 128.69 88.2255 127.94C87.7455 127.19 86.8755 126.62 85.6155 126.23C84.3855 125.84 82.6905 125.645 80.5305 125.645H72.9255L74.5455 108.5H93.0405V113.405H76.7055L79.7655 110.615L78.5505 123.44L75.4905 120.695H81.8355C84.9555 120.695 87.4605 121.115 89.3505 121.955C91.2705 122.765 92.6655 123.905 93.5355 125.375C94.4355 126.815 94.8855 128.465 94.8855 130.325C94.8855 132.155 94.4355 133.835 93.5355 135.365C92.6355 136.895 91.2555 138.125 89.3955 139.055C87.5655 139.985 85.2405 140.45 82.4205 140.45ZM108.48 140.45C106.26 140.45 104.085 140.135 101.955 139.505C99.8551 138.845 98.0851 137.945 96.6451 136.805L99.1201 132.26C100.26 133.19 101.64 133.94 103.26 134.51C104.91 135.08 106.62 135.365 108.39 135.365C110.46 135.365 112.08 134.93 113.25 134.06C114.45 133.19 115.05 132.02 115.05 130.55C115.05 129.56 114.795 128.69 114.285 127.94C113.805 127.19 112.935 126.62 111.675 126.23C110.445 125.84 108.75 125.645 106.59 125.645H98.9851L100.605 108.5H119.1V113.405H102.765L105.825 110.615L104.61 123.44L101.55 120.695H107.895C111.015 120.695 113.52 121.115 115.41 121.955C117.33 122.765 118.725 123.905 119.595 125.375C120.495 126.815 120.945 128.465 120.945 130.325C120.945 132.155 120.495 133.835 119.595 135.365C118.695 136.895 117.315 138.125 115.455 139.055C113.625 139.985 111.3 140.45 108.48 140.45ZM128.29 140L149.8 108.5H154.21L132.7 140H128.29ZM130.9 125.465C129.43 125.465 128.125 125.105 126.985 124.385C125.845 123.665 124.96 122.66 124.33 121.37C123.7 120.08 123.385 118.565 123.385 116.825C123.385 115.085 123.7 113.57 124.33 112.28C124.96 110.99 125.845 109.985 126.985 109.265C128.125 108.545 129.43 108.185 130.9 108.185C132.43 108.185 133.75 108.545 134.86 109.265C136 109.985 136.885 110.99 137.515 112.28C138.145 113.57 138.46 115.085 138.46 116.825C138.46 118.565 138.145 120.08 137.515 121.37C136.885 122.66 136 123.665 134.86 124.385C133.75 125.105 132.43 125.465 130.9 125.465ZM130.945 122.315C132.145 122.315 133.075 121.85 133.735 120.92C134.425 119.96 134.77 118.595 134.77 116.825C134.77 115.055 134.425 113.705 133.735 112.775C133.075 111.815 132.145 111.335 130.945 111.335C129.745 111.335 128.785 111.815 128.065 112.775C127.375 113.735 127.03 115.085 127.03 116.825C127.03 118.565 127.375 119.915 128.065 120.875C128.785 121.835 129.745 122.315 130.945 122.315ZM151.555 140.315C150.085 140.315 148.78 139.955 147.64 139.235C146.5 138.515 145.615 137.51 144.985 136.22C144.355 134.93 144.04 133.415 144.04 131.675C144.04 129.935 144.355 128.42 144.985 127.13C145.615 125.84 146.5 124.835 147.64 124.115C148.78 123.395 150.085 123.035 151.555 123.035C153.085 123.035 154.405 123.395 155.515 124.115C156.655 124.835 157.54 125.84 158.17 127.13C158.8 128.42 159.115 129.935 159.115 131.675C159.115 133.415 158.8 134.93 158.17 136.22C157.54 137.51 156.655 138.515 155.515 139.235C154.405 139.955 153.085 140.315 151.555 140.315ZM151.555 137.165C152.755 137.165 153.7 136.685 154.39 135.725C155.08 134.765 155.425 133.415 155.425 131.675C155.425 129.935 155.08 128.585 154.39 127.625C153.7 126.665 152.755 126.185 151.555 126.185C150.385 126.185 149.44 126.665 148.72 127.625C148.03 128.555 147.685 129.905 147.685 131.675C147.685 133.445 148.03 134.81 148.72 135.77C149.44 136.7 150.385 137.165 151.555 137.165Z" fill="#1CA8B4"/>
</svg>
