<svg width="245" height="248" viewBox="0 0 245 248" fill="none" xmlns="http://www.w3.org/2000/svg">
<rect x="115.012" y="219.436" width="12.7826" height="27.6956" rx="5" fill="#1CA8B4"/>
<rect x="27.6958" y="117.174" width="12.7826" height="27.6956" rx="5" transform="rotate(90 27.6958 117.174)" fill="#1CA8B4"/>
<rect x="127.813" y="27.6953" width="12.7826" height="27.6956" rx="5" transform="rotate(180 127.813 27.6953)" fill="#1CA8B4"/>
<rect x="144.743" y="218.012" width="12.7826" height="27.6956" rx="5" transform="rotate(-22.9045 144.743 218.012)" fill="#1CA8B4"/>
<rect x="173.114" y="205.949" width="12.7826" height="27.6956" rx="5" transform="rotate(-40.0284 173.114 205.949)" fill="#1CA8B4"/>
<rect x="196.086" y="186.447" width="12.7826" height="27.6956" rx="5" transform="rotate(-59.2628 196.086 186.447)" fill="#1CA8B4"/>
<rect x="210.911" y="159.305" width="12.7826" height="27.6956" rx="5" transform="rotate(-74.2695 210.911 159.305)" fill="#1CA8B4"/>
<rect x="215.868" y="100.545" width="12.7826" height="27.6956" rx="5" transform="rotate(-112.904 215.868 100.545)" fill="#1CA8B4"/>
<rect x="203.848" y="72.2168" width="12.7826" height="27.6956" rx="5" transform="rotate(-130.028 203.848 72.2168)" fill="#1CA8B4"/>
<rect x="184.278" y="49.2324" width="12.7826" height="27.6956" rx="5" transform="rotate(-149.263 184.278 49.2324)" fill="#1CA8B4"/>
<rect x="157.18" y="34.3848" width="12.7826" height="27.6956" rx="5" transform="rotate(-164.27 157.18 34.3848)" fill="#1CA8B4"/>
<rect x="27.6411" y="147" width="12.7826" height="27.6956" rx="5" transform="rotate(67.0955 27.6411 147)" fill="#1CA8B4"/>
<rect x="39.7153" y="175.328" width="12.7826" height="27.6956" rx="5" transform="rotate(49.9716 39.7153 175.328)" fill="#1CA8B4"/>
<rect x="59.2114" y="198.314" width="12.7826" height="27.6956" rx="5" transform="rotate(30.7372 59.2114 198.314)" fill="#1CA8B4"/>
<rect x="86.3638" y="213.16" width="12.7826" height="27.6956" rx="5" transform="rotate(15.7305 86.3638 213.16)" fill="#1CA8B4"/>
<rect x="98.3911" y="29.7734" width="12.7826" height="27.6956" rx="5" transform="rotate(157.096 98.3911 29.7734)" fill="#AAAAAA"/>
<rect x="70.0942" y="41.8359" width="12.7826" height="27.6956" rx="5" transform="rotate(139.972 70.0942 41.8359)" fill="#1CA8B4"/>
<rect x="47.0781" y="61.3379" width="12.7826" height="27.6956" rx="5" transform="rotate(120.737 47.0781 61.3379)" fill="#1CA8B4"/>
<rect x="32.2231" y="88.4805" width="12.7826" height="27.6956" rx="5" transform="rotate(105.73 32.2231 88.4805)" fill="#1CA8B4"/>
<rect x="217.309" y="129.957" width="12.7826" height="27.6956" rx="5" transform="rotate(-90 217.309 129.957)" fill="#1CA8B4"/>
<path d="M81.6005 108.05C84.4805 108.05 86.9255 108.665 88.9355 109.895C90.9755 111.095 92.5355 112.85 93.6155 115.16C94.6955 117.47 95.2355 120.32 95.2355 123.71C95.2355 127.31 94.5755 130.355 93.2555 132.845C91.9655 135.335 90.1655 137.225 87.8555 138.515C85.5455 139.805 82.8605 140.45 79.8005 140.45C78.2105 140.45 76.6955 140.285 75.2555 139.955C73.8155 139.625 72.5705 139.115 71.5205 138.425L73.6805 134.015C74.5505 134.585 75.4955 134.99 76.5155 135.23C77.5355 135.44 78.5855 135.545 79.6655 135.545C82.6355 135.545 84.9905 134.63 86.7305 132.8C88.4705 130.97 89.3405 128.27 89.3405 124.7C89.3405 124.13 89.3255 123.47 89.2955 122.72C89.2655 121.94 89.1605 121.16 88.9805 120.38L90.7805 122.36C90.2705 123.59 89.5355 124.625 88.5755 125.465C87.6155 126.275 86.4905 126.89 85.2005 127.31C83.9105 127.73 82.4855 127.94 80.9255 127.94C78.8855 127.94 77.0405 127.55 75.3905 126.77C73.7705 125.96 72.4805 124.835 71.5205 123.395C70.5605 121.925 70.0805 120.215 70.0805 118.265C70.0805 116.165 70.5905 114.365 71.6105 112.865C72.6305 111.335 74.0105 110.15 75.7505 109.31C77.5205 108.47 79.4705 108.05 81.6005 108.05ZM81.9155 112.64C80.7155 112.64 79.6505 112.865 78.7205 113.315C77.7905 113.735 77.0555 114.35 76.5155 115.16C76.0055 115.94 75.7505 116.885 75.7505 117.995C75.7505 119.645 76.3205 120.95 77.4605 121.91C78.6005 122.87 80.1305 123.35 82.0505 123.35C83.3105 123.35 84.4205 123.125 85.3805 122.675C86.3405 122.195 87.0905 121.55 87.6305 120.74C88.1705 119.9 88.4405 118.97 88.4405 117.95C88.4405 116.96 88.1855 116.075 87.6755 115.295C87.1655 114.485 86.4305 113.84 85.4705 113.36C84.5105 112.88 83.3255 112.64 81.9155 112.64ZM109.633 140.45C107.413 140.45 105.238 140.135 103.108 139.505C101.008 138.845 99.2384 137.945 97.7984 136.805L100.273 132.26C101.413 133.19 102.793 133.94 104.413 134.51C106.063 135.08 107.773 135.365 109.543 135.365C111.613 135.365 113.233 134.93 114.403 134.06C115.603 133.19 116.203 132.02 116.203 130.55C116.203 129.56 115.948 128.69 115.438 127.94C114.958 127.19 114.088 126.62 112.828 126.23C111.598 125.84 109.903 125.645 107.743 125.645H100.138L101.758 108.5H120.253V113.405H103.918L106.978 110.615L105.763 123.44L102.703 120.695H109.048C112.168 120.695 114.673 121.115 116.563 121.955C118.483 122.765 119.878 123.905 120.748 125.375C121.648 126.815 122.098 128.465 122.098 130.325C122.098 132.155 121.648 133.835 120.748 135.365C119.848 136.895 118.468 138.125 116.608 139.055C114.778 139.985 112.453 140.45 109.633 140.45ZM142.319 140L163.829 108.5H168.239L146.729 140H142.319ZM144.929 125.465C143.459 125.465 142.154 125.105 141.014 124.385C139.874 123.665 138.989 122.66 138.359 121.37C137.729 120.08 137.414 118.565 137.414 116.825C137.414 115.085 137.729 113.57 138.359 112.28C138.989 110.99 139.874 109.985 141.014 109.265C142.154 108.545 143.459 108.185 144.929 108.185C146.459 108.185 147.779 108.545 148.889 109.265C150.029 109.985 150.914 110.99 151.544 112.28C152.174 113.57 152.489 115.085 152.489 116.825C152.489 118.565 152.174 120.08 151.544 121.37C150.914 122.66 150.029 123.665 148.889 124.385C147.779 125.105 146.459 125.465 144.929 125.465ZM144.974 122.315C146.174 122.315 147.104 121.85 147.764 120.92C148.454 119.96 148.799 118.595 148.799 116.825C148.799 115.055 148.454 113.705 147.764 112.775C147.104 111.815 146.174 111.335 144.974 111.335C143.774 111.335 142.814 111.815 142.094 112.775C141.404 113.735 141.059 115.085 141.059 116.825C141.059 118.565 141.404 119.915 142.094 120.875C142.814 121.835 143.774 122.315 144.974 122.315ZM165.584 140.315C164.114 140.315 162.809 139.955 161.669 139.235C160.529 138.515 159.644 137.51 159.014 136.22C158.384 134.93 158.069 133.415 158.069 131.675C158.069 129.935 158.384 128.42 159.014 127.13C159.644 125.84 160.529 124.835 161.669 124.115C162.809 123.395 164.114 123.035 165.584 123.035C167.114 123.035 168.434 123.395 169.544 124.115C170.684 124.835 171.569 125.84 172.199 127.13C172.829 128.42 173.144 129.935 173.144 131.675C173.144 133.415 172.829 134.93 172.199 136.22C171.569 137.51 170.684 138.515 169.544 139.235C168.434 139.955 167.114 140.315 165.584 140.315ZM165.584 137.165C166.784 137.165 167.729 136.685 168.419 135.725C169.109 134.765 169.454 133.415 169.454 131.675C169.454 129.935 169.109 128.585 168.419 127.625C167.729 126.665 166.784 126.185 165.584 126.185C164.414 126.185 163.469 126.665 162.749 127.625C162.059 128.555 161.714 129.905 161.714 131.675C161.714 133.445 162.059 134.81 162.749 135.77C163.469 136.7 164.414 137.165 165.584 137.165Z" fill="#1CA8B4"/>
</svg>
