<svg width="245" height="248" viewBox="0 0 245 248" fill="none" xmlns="http://www.w3.org/2000/svg">
<rect x="115.012" y="219.436" width="12.7826" height="27.6956" rx="5" fill="#1CA8B4"/>
<rect x="27.6958" y="117.174" width="12.7826" height="27.6956" rx="5" transform="rotate(90 27.6958 117.174)" fill="#AAAAAA"/>
<rect x="127.813" y="27.6953" width="12.7826" height="27.6956" rx="5" transform="rotate(180 127.813 27.6953)" fill="#1CA8B4"/>
<rect x="144.743" y="218.012" width="12.7826" height="27.6956" rx="5" transform="rotate(-22.9045 144.743 218.012)" fill="#1CA8B4"/>
<rect x="173.114" y="205.949" width="12.7826" height="27.6956" rx="5" transform="rotate(-40.0284 173.114 205.949)" fill="#1CA8B4"/>
<rect x="196.086" y="186.447" width="12.7826" height="27.6956" rx="5" transform="rotate(-59.2628 196.086 186.447)" fill="#1CA8B4"/>
<rect x="210.911" y="159.305" width="12.7826" height="27.6956" rx="5" transform="rotate(-74.2695 210.911 159.305)" fill="#1CA8B4"/>
<rect x="215.868" y="100.545" width="12.7826" height="27.6956" rx="5" transform="rotate(-112.904 215.868 100.545)" fill="#1CA8B4"/>
<rect x="203.848" y="72.2168" width="12.7826" height="27.6956" rx="5" transform="rotate(-130.028 203.848 72.2168)" fill="#1CA8B4"/>
<rect x="184.278" y="49.2324" width="12.7826" height="27.6956" rx="5" transform="rotate(-149.263 184.278 49.2324)" fill="#1CA8B4"/>
<rect x="157.18" y="34.3848" width="12.7826" height="27.6956" rx="5" transform="rotate(-164.27 157.18 34.3848)" fill="#1CA8B4"/>
<rect x="27.6411" y="147" width="12.7826" height="27.6956" rx="5" transform="rotate(67.0955 27.6411 147)" fill="#AAAAAA"/>
<rect x="39.7153" y="175.328" width="12.7826" height="27.6956" rx="5" transform="rotate(49.9716 39.7153 175.328)" fill="#1CA8B4"/>
<rect x="59.2114" y="198.314" width="12.7826" height="27.6956" rx="5" transform="rotate(30.7372 59.2114 198.314)" fill="#1CA8B4"/>
<rect x="86.3638" y="213.16" width="12.7826" height="27.6956" rx="5" transform="rotate(15.7305 86.3638 213.16)" fill="#1CA8B4"/>
<rect x="98.3911" y="29.7734" width="12.7826" height="27.6956" rx="5" transform="rotate(157.096 98.3911 29.7734)" fill="#AAAAAA"/>
<rect x="70.0942" y="41.8359" width="12.7826" height="27.6956" rx="5" transform="rotate(139.972 70.0942 41.8359)" fill="#AAAAAA"/>
<rect x="47.0781" y="61.3379" width="12.7826" height="27.6956" rx="5" transform="rotate(120.737 47.0781 61.3379)" fill="#AAAAAA"/>
<rect x="32.2231" y="88.4805" width="12.7826" height="27.6956" rx="5" transform="rotate(105.73 32.2231 88.4805)" fill="#AAAAAA"/>
<rect x="217.309" y="129.957" width="12.7826" height="27.6956" rx="5" transform="rotate(-90 217.309 129.957)" fill="#1CA8B4"/>
<path d="M77.2455 140L90.2505 110.84L91.7805 113.45H73.9155L76.7055 110.615V118.805H71.2605V108.5H95.7405V112.415L83.5005 140H77.2455ZM111.62 140.45C109.13 140.45 106.88 139.82 104.87 138.56C102.89 137.3 101.33 135.47 100.19 133.07C99.0495 130.64 98.4795 127.7 98.4795 124.25C98.4795 120.8 99.0495 117.875 100.19 115.475C101.33 113.045 102.89 111.2 104.87 109.94C106.88 108.68 109.13 108.05 111.62 108.05C114.14 108.05 116.39 108.68 118.37 109.94C120.35 111.2 121.91 113.045 123.05 115.475C124.22 117.875 124.805 120.8 124.805 124.25C124.805 127.7 124.22 130.64 123.05 133.07C121.91 135.47 120.35 137.3 118.37 138.56C116.39 139.82 114.14 140.45 111.62 140.45ZM111.62 135.365C113.09 135.365 114.365 134.975 115.445 134.195C116.525 133.385 117.365 132.155 117.965 130.505C118.595 128.855 118.91 126.77 118.91 124.25C118.91 121.7 118.595 119.615 117.965 117.995C117.365 116.345 116.525 115.13 115.445 114.35C114.365 113.54 113.09 113.135 111.62 113.135C110.21 113.135 108.95 113.54 107.84 114.35C106.76 115.13 105.905 116.345 105.275 117.995C104.675 119.615 104.375 121.7 104.375 124.25C104.375 126.77 104.675 128.855 105.275 130.505C105.905 132.155 106.76 133.385 107.84 134.195C108.95 134.975 110.21 135.365 111.62 135.365ZM133.168 140L154.678 108.5H159.088L137.578 140H133.168ZM135.778 125.465C134.308 125.465 133.003 125.105 131.863 124.385C130.723 123.665 129.838 122.66 129.208 121.37C128.578 120.08 128.263 118.565 128.263 116.825C128.263 115.085 128.578 113.57 129.208 112.28C129.838 110.99 130.723 109.985 131.863 109.265C133.003 108.545 134.308 108.185 135.778 108.185C137.308 108.185 138.628 108.545 139.738 109.265C140.878 109.985 141.763 110.99 142.393 112.28C143.023 113.57 143.338 115.085 143.338 116.825C143.338 118.565 143.023 120.08 142.393 121.37C141.763 122.66 140.878 123.665 139.738 124.385C138.628 125.105 137.308 125.465 135.778 125.465ZM135.823 122.315C137.023 122.315 137.953 121.85 138.613 120.92C139.303 119.96 139.648 118.595 139.648 116.825C139.648 115.055 139.303 113.705 138.613 112.775C137.953 111.815 137.023 111.335 135.823 111.335C134.623 111.335 133.663 111.815 132.943 112.775C132.253 113.735 131.908 115.085 131.908 116.825C131.908 118.565 132.253 119.915 132.943 120.875C133.663 121.835 134.623 122.315 135.823 122.315ZM156.433 140.315C154.963 140.315 153.658 139.955 152.518 139.235C151.378 138.515 150.493 137.51 149.863 136.22C149.233 134.93 148.918 133.415 148.918 131.675C148.918 129.935 149.233 128.42 149.863 127.13C150.493 125.84 151.378 124.835 152.518 124.115C153.658 123.395 154.963 123.035 156.433 123.035C157.963 123.035 159.283 123.395 160.393 124.115C161.533 124.835 162.418 125.84 163.048 127.13C163.678 128.42 163.993 129.935 163.993 131.675C163.993 133.415 163.678 134.93 163.048 136.22C162.418 137.51 161.533 138.515 160.393 139.235C159.283 139.955 157.963 140.315 156.433 140.315ZM156.433 137.165C157.633 137.165 158.578 136.685 159.268 135.725C159.958 134.765 160.303 133.415 160.303 131.675C160.303 129.935 159.958 128.585 159.268 127.625C158.578 126.665 157.633 126.185 156.433 126.185C155.263 126.185 154.318 126.665 153.598 127.625C152.908 128.555 152.563 129.905 152.563 131.675C152.563 133.445 152.908 134.81 153.598 135.77C154.318 136.7 155.263 137.165 156.433 137.165Z" fill="#1CA8B4"/>
</svg>
