<svg width="245" height="248" viewBox="0 0 245 248" fill="none" xmlns="http://www.w3.org/2000/svg">
<rect x="115.012" y="219.436" width="12.7826" height="27.6956" rx="5" fill="#1CA8B4"/>
<rect x="27.6958" y="117.174" width="12.7826" height="27.6956" rx="5" transform="rotate(90 27.6958 117.174)" fill="#AAAAAA"/>
<rect x="127.813" y="27.6953" width="12.7826" height="27.6956" rx="5" transform="rotate(180 127.813 27.6953)" fill="#1CA8B4"/>
<rect x="144.743" y="218.012" width="12.7826" height="27.6956" rx="5" transform="rotate(-22.9045 144.743 218.012)" fill="#1CA8B4"/>
<rect x="173.114" y="205.949" width="12.7826" height="27.6956" rx="5" transform="rotate(-40.0284 173.114 205.949)" fill="#1CA8B4"/>
<rect x="196.086" y="186.447" width="12.7826" height="27.6956" rx="5" transform="rotate(-59.2628 196.086 186.447)" fill="#1CA8B4"/>
<rect x="210.911" y="159.305" width="12.7826" height="27.6956" rx="5" transform="rotate(-74.2695 210.911 159.305)" fill="#1CA8B4"/>
<rect x="215.868" y="100.545" width="12.7826" height="27.6956" rx="5" transform="rotate(-112.904 215.868 100.545)" fill="#1CA8B4"/>
<rect x="203.848" y="72.2168" width="12.7826" height="27.6956" rx="5" transform="rotate(-130.028 203.848 72.2168)" fill="#1CA8B4"/>
<rect x="184.278" y="49.2324" width="12.7826" height="27.6956" rx="5" transform="rotate(-149.263 184.278 49.2324)" fill="#1CA8B4"/>
<rect x="157.18" y="34.3848" width="12.7826" height="27.6956" rx="5" transform="rotate(-164.27 157.18 34.3848)" fill="#1CA8B4"/>
<rect x="27.6411" y="147" width="12.7826" height="27.6956" rx="5" transform="rotate(67.0955 27.6411 147)" fill="#AAAAAA"/>
<rect x="39.7153" y="175.328" width="12.7826" height="27.6956" rx="5" transform="rotate(49.9716 39.7153 175.328)" fill="#AAAAAA"/>
<rect x="59.2114" y="198.314" width="12.7826" height="27.6956" rx="5" transform="rotate(30.7372 59.2114 198.314)" fill="#AAAAAA"/>
<rect x="86.3638" y="213.16" width="12.7826" height="27.6956" rx="5" transform="rotate(15.7305 86.3638 213.16)" fill="#1CA8B4"/>
<rect x="98.3911" y="29.7734" width="12.7826" height="27.6956" rx="5" transform="rotate(157.096 98.3911 29.7734)" fill="#AAAAAA"/>
<rect x="70.0942" y="41.8359" width="12.7826" height="27.6956" rx="5" transform="rotate(139.972 70.0942 41.8359)" fill="#AAAAAA"/>
<rect x="47.0781" y="61.3379" width="12.7826" height="27.6956" rx="5" transform="rotate(120.737 47.0781 61.3379)" fill="#AAAAAA"/>
<rect x="32.2231" y="88.4805" width="12.7826" height="27.6956" rx="5" transform="rotate(105.73 32.2231 88.4805)" fill="#AAAAAA"/>
<rect x="217.309" y="129.957" width="12.7826" height="27.6956" rx="5" transform="rotate(-90 217.309 129.957)" fill="#1CA8B4"/>
<path d="M85.6155 140.45C82.7655 140.45 80.3205 139.85 78.2805 138.65C76.2405 137.42 74.6805 135.65 73.6005 133.34C72.5205 131.03 71.9805 128.18 71.9805 124.79C71.9805 121.19 72.6255 118.145 73.9155 115.655C75.2355 113.165 77.0505 111.275 79.3605 109.985C81.7005 108.695 84.3855 108.05 87.4155 108.05C89.0055 108.05 90.5205 108.215 91.9605 108.545C93.4305 108.875 94.6755 109.385 95.6955 110.075L93.5355 114.485C92.6655 113.915 91.7205 113.525 90.7005 113.315C89.7105 113.075 88.6605 112.955 87.5505 112.955C84.5805 112.955 82.2255 113.87 80.4855 115.7C78.7455 117.53 77.8755 120.23 77.8755 123.8C77.8755 124.37 77.8905 125.045 77.9205 125.825C77.9505 126.575 78.0555 127.34 78.2355 128.12L76.4355 126.14C76.9755 124.91 77.7105 123.89 78.6405 123.08C79.6005 122.24 80.7255 121.61 82.0155 121.19C83.3355 120.77 84.7605 120.56 86.2905 120.56C88.3605 120.56 90.2055 120.965 91.8255 121.775C93.4455 122.555 94.7355 123.68 95.6955 125.15C96.6555 126.59 97.1355 128.285 97.1355 130.235C97.1355 132.305 96.6255 134.105 95.6055 135.635C94.5855 137.165 93.2055 138.35 91.4655 139.19C89.7255 140.03 87.7755 140.45 85.6155 140.45ZM85.3005 135.86C86.5005 135.86 87.5655 135.65 88.4955 135.23C89.4255 134.78 90.1455 134.15 90.6555 133.34C91.1955 132.53 91.4655 131.585 91.4655 130.505C91.4655 128.855 90.8955 127.55 89.7555 126.59C88.6155 125.63 87.0855 125.15 85.1655 125.15C83.9055 125.15 82.7955 125.39 81.8355 125.87C80.9055 126.32 80.1555 126.95 79.5855 127.76C79.0455 128.57 78.7755 129.5 78.7755 130.55C78.7755 131.51 79.0305 132.395 79.5405 133.205C80.0505 134.015 80.7855 134.66 81.7455 135.14C82.7355 135.62 83.9205 135.86 85.3005 135.86ZM113.333 140.45C110.843 140.45 108.593 139.82 106.583 138.56C104.603 137.3 103.043 135.47 101.903 133.07C100.763 130.64 100.193 127.7 100.193 124.25C100.193 120.8 100.763 117.875 101.903 115.475C103.043 113.045 104.603 111.2 106.583 109.94C108.593 108.68 110.843 108.05 113.333 108.05C115.853 108.05 118.103 108.68 120.083 109.94C122.063 111.2 123.623 113.045 124.763 115.475C125.933 117.875 126.518 120.8 126.518 124.25C126.518 127.7 125.933 130.64 124.763 133.07C123.623 135.47 122.063 137.3 120.083 138.56C118.103 139.82 115.853 140.45 113.333 140.45ZM113.333 135.365C114.803 135.365 116.078 134.975 117.158 134.195C118.238 133.385 119.078 132.155 119.678 130.505C120.308 128.855 120.623 126.77 120.623 124.25C120.623 121.7 120.308 119.615 119.678 117.995C119.078 116.345 118.238 115.13 117.158 114.35C116.078 113.54 114.803 113.135 113.333 113.135C111.923 113.135 110.663 113.54 109.553 114.35C108.473 115.13 107.618 116.345 106.988 117.995C106.388 119.615 106.088 121.7 106.088 124.25C106.088 126.77 106.388 128.855 106.988 130.505C107.618 132.155 108.473 133.385 109.553 134.195C110.663 134.975 111.923 135.365 113.333 135.365ZM134.882 140L156.392 108.5H160.802L139.292 140H134.882ZM137.492 125.465C136.022 125.465 134.717 125.105 133.577 124.385C132.437 123.665 131.552 122.66 130.922 121.37C130.292 120.08 129.977 118.565 129.977 116.825C129.977 115.085 130.292 113.57 130.922 112.28C131.552 110.99 132.437 109.985 133.577 109.265C134.717 108.545 136.022 108.185 137.492 108.185C139.022 108.185 140.342 108.545 141.452 109.265C142.592 109.985 143.477 110.99 144.107 112.28C144.737 113.57 145.052 115.085 145.052 116.825C145.052 118.565 144.737 120.08 144.107 121.37C143.477 122.66 142.592 123.665 141.452 124.385C140.342 125.105 139.022 125.465 137.492 125.465ZM137.537 122.315C138.737 122.315 139.667 121.85 140.327 120.92C141.017 119.96 141.362 118.595 141.362 116.825C141.362 115.055 141.017 113.705 140.327 112.775C139.667 111.815 138.737 111.335 137.537 111.335C136.337 111.335 135.377 111.815 134.657 112.775C133.967 113.735 133.622 115.085 133.622 116.825C133.622 118.565 133.967 119.915 134.657 120.875C135.377 121.835 136.337 122.315 137.537 122.315ZM158.147 140.315C156.677 140.315 155.372 139.955 154.232 139.235C153.092 138.515 152.207 137.51 151.577 136.22C150.947 134.93 150.632 133.415 150.632 131.675C150.632 129.935 150.947 128.42 151.577 127.13C152.207 125.84 153.092 124.835 154.232 124.115C155.372 123.395 156.677 123.035 158.147 123.035C159.677 123.035 160.997 123.395 162.107 124.115C163.247 124.835 164.132 125.84 164.762 127.13C165.392 128.42 165.707 129.935 165.707 131.675C165.707 133.415 165.392 134.93 164.762 136.22C164.132 137.51 163.247 138.515 162.107 139.235C160.997 139.955 159.677 140.315 158.147 140.315ZM158.147 137.165C159.347 137.165 160.292 136.685 160.982 135.725C161.672 134.765 162.017 133.415 162.017 131.675C162.017 129.935 161.672 128.585 160.982 127.625C160.292 126.665 159.347 126.185 158.147 126.185C156.977 126.185 156.032 126.665 155.312 127.625C154.622 128.555 154.277 129.905 154.277 131.675C154.277 133.445 154.622 134.81 155.312 135.77C156.032 136.7 156.977 137.165 158.147 137.165Z" fill="#1CA8B4"/>
</svg>
