<svg width="245" height="248" viewBox="0 0 245 248" fill="none" xmlns="http://www.w3.org/2000/svg">
<rect x="115.012" y="219.436" width="12.7826" height="27.6956" rx="5" fill="#1CA8B4"/>
<rect x="27.6958" y="117.174" width="12.7826" height="27.6956" rx="5" transform="rotate(90 27.6958 117.174)" fill="#1CA8B4"/>
<rect x="127.813" y="27.6953" width="12.7826" height="27.6956" rx="5" transform="rotate(180 127.813 27.6953)" fill="#1CA8B4"/>
<rect x="144.743" y="218.012" width="12.7826" height="27.6956" rx="5" transform="rotate(-22.9045 144.743 218.012)" fill="#1CA8B4"/>
<rect x="173.114" y="205.949" width="12.7826" height="27.6956" rx="5" transform="rotate(-40.0284 173.114 205.949)" fill="#1CA8B4"/>
<rect x="196.086" y="186.447" width="12.7826" height="27.6956" rx="5" transform="rotate(-59.2628 196.086 186.447)" fill="#1CA8B4"/>
<rect x="210.911" y="159.305" width="12.7826" height="27.6956" rx="5" transform="rotate(-74.2695 210.911 159.305)" fill="#1CA8B4"/>
<rect x="215.868" y="100.545" width="12.7826" height="27.6956" rx="5" transform="rotate(-112.904 215.868 100.545)" fill="#1CA8B4"/>
<rect x="203.848" y="72.2168" width="12.7826" height="27.6956" rx="5" transform="rotate(-130.028 203.848 72.2168)" fill="#1CA8B4"/>
<rect x="184.278" y="49.2324" width="12.7826" height="27.6956" rx="5" transform="rotate(-149.263 184.278 49.2324)" fill="#1CA8B4"/>
<rect x="157.18" y="34.3848" width="12.7826" height="27.6956" rx="5" transform="rotate(-164.27 157.18 34.3848)" fill="#1CA8B4"/>
<rect x="27.6411" y="147" width="12.7826" height="27.6956" rx="5" transform="rotate(67.0955 27.6411 147)" fill="#1CA8B4"/>
<rect x="39.7153" y="175.328" width="12.7826" height="27.6956" rx="5" transform="rotate(49.9716 39.7153 175.328)" fill="#1CA8B4"/>
<rect x="59.2114" y="198.314" width="12.7826" height="27.6956" rx="5" transform="rotate(30.7372 59.2114 198.314)" fill="#1CA8B4"/>
<rect x="86.3638" y="213.16" width="12.7826" height="27.6956" rx="5" transform="rotate(15.7305 86.3638 213.16)" fill="#1CA8B4"/>
<rect x="98.3911" y="29.7734" width="12.7826" height="27.6956" rx="5" transform="rotate(157.096 98.3911 29.7734)" fill="#AAAAAA"/>
<rect x="70.0942" y="41.8359" width="12.7826" height="27.6956" rx="5" transform="rotate(139.972 70.0942 41.8359)" fill="#AAAAAA"/>
<rect x="47.0781" y="61.3379" width="12.7826" height="27.6956" rx="5" transform="rotate(120.737 47.0781 61.3379)" fill="#AAAAAA"/>
<rect x="32.2231" y="88.4805" width="12.7826" height="27.6956" rx="5" transform="rotate(105.73 32.2231 88.4805)" fill="#AAAAAA"/>
<rect x="217.309" y="129.957" width="12.7826" height="27.6956" rx="5" transform="rotate(-90 217.309 129.957)" fill="#1CA8B4"/>
<path d="M84.6255 140.45C82.0155 140.45 79.7505 140.06 77.8305 139.28C75.9105 138.5 74.4255 137.405 73.3755 135.995C72.3255 134.555 71.8005 132.875 71.8005 130.955C71.8005 129.035 72.3105 127.415 73.3305 126.095C74.3505 124.775 75.8205 123.77 77.7405 123.08C79.6605 122.39 81.9555 122.045 84.6255 122.045C87.2955 122.045 89.5905 122.39 91.5105 123.08C93.4605 123.77 94.9455 124.79 95.9655 126.14C97.0155 127.46 97.5405 129.065 97.5405 130.955C97.5405 132.875 97.0005 134.555 95.9205 135.995C94.8705 137.405 93.3705 138.5 91.4205 139.28C89.5005 140.06 87.2355 140.45 84.6255 140.45ZM84.6255 135.86C86.7855 135.86 88.4955 135.41 89.7555 134.51C91.0155 133.61 91.6455 132.365 91.6455 130.775C91.6455 129.215 91.0155 127.985 89.7555 127.085C88.4955 126.185 86.7855 125.735 84.6255 125.735C82.4655 125.735 80.7705 126.185 79.5405 127.085C78.3105 127.985 77.6955 129.215 77.6955 130.775C77.6955 132.365 78.3105 133.61 79.5405 134.51C80.7705 135.41 82.4655 135.86 84.6255 135.86ZM84.6255 125.105C82.1955 125.105 80.1105 124.79 78.3705 124.16C76.6305 123.5 75.2805 122.555 74.3205 121.325C73.3905 120.065 72.9255 118.565 72.9255 116.825C72.9255 115.025 73.4055 113.48 74.3655 112.19C75.3555 110.87 76.7355 109.85 78.5055 109.13C80.2755 108.41 82.3155 108.05 84.6255 108.05C86.9655 108.05 89.0205 108.41 90.7905 109.13C92.5605 109.85 93.9405 110.87 94.9305 112.19C95.9205 113.48 96.4155 115.025 96.4155 116.825C96.4155 118.565 95.9355 120.065 94.9755 121.325C94.0455 122.555 92.6955 123.5 90.9255 124.16C89.1555 124.79 87.0555 125.105 84.6255 125.105ZM84.6255 121.505C86.4855 121.505 87.9555 121.115 89.0355 120.335C90.1155 119.525 90.6555 118.445 90.6555 117.095C90.6555 115.685 90.1005 114.59 88.9905 113.81C87.8805 113.03 86.4255 112.64 84.6255 112.64C82.8255 112.64 81.3855 113.03 80.3055 113.81C79.2255 114.59 78.6855 115.685 78.6855 117.095C78.6855 118.445 79.2105 119.525 80.2605 120.335C81.3405 121.115 82.7955 121.505 84.6255 121.505ZM114.476 140.45C111.986 140.45 109.736 139.82 107.726 138.56C105.746 137.3 104.186 135.47 103.046 133.07C101.906 130.64 101.336 127.7 101.336 124.25C101.336 120.8 101.906 117.875 103.046 115.475C104.186 113.045 105.746 111.2 107.726 109.94C109.736 108.68 111.986 108.05 114.476 108.05C116.996 108.05 119.246 108.68 121.226 109.94C123.206 111.2 124.766 113.045 125.906 115.475C127.076 117.875 127.661 120.8 127.661 124.25C127.661 127.7 127.076 130.64 125.906 133.07C124.766 135.47 123.206 137.3 121.226 138.56C119.246 139.82 116.996 140.45 114.476 140.45ZM114.476 135.365C115.946 135.365 117.221 134.975 118.301 134.195C119.381 133.385 120.221 132.155 120.821 130.505C121.451 128.855 121.766 126.77 121.766 124.25C121.766 121.7 121.451 119.615 120.821 117.995C120.221 116.345 119.381 115.13 118.301 114.35C117.221 113.54 115.946 113.135 114.476 113.135C113.066 113.135 111.806 113.54 110.696 114.35C109.616 115.13 108.761 116.345 108.131 117.995C107.531 119.615 107.231 121.7 107.231 124.25C107.231 126.77 107.531 128.855 108.131 130.505C108.761 132.155 109.616 133.385 110.696 134.195C111.806 134.975 113.066 135.365 114.476 135.365ZM148.461 140L169.971 108.5H174.381L152.871 140H148.461ZM151.071 125.465C149.601 125.465 148.296 125.105 147.156 124.385C146.016 123.665 145.131 122.66 144.501 121.37C143.871 120.08 143.556 118.565 143.556 116.825C143.556 115.085 143.871 113.57 144.501 112.28C145.131 110.99 146.016 109.985 147.156 109.265C148.296 108.545 149.601 108.185 151.071 108.185C152.601 108.185 153.921 108.545 155.031 109.265C156.171 109.985 157.056 110.99 157.686 112.28C158.316 113.57 158.631 115.085 158.631 116.825C158.631 118.565 158.316 120.08 157.686 121.37C157.056 122.66 156.171 123.665 155.031 124.385C153.921 125.105 152.601 125.465 151.071 125.465ZM151.116 122.315C152.316 122.315 153.246 121.85 153.906 120.92C154.596 119.96 154.941 118.595 154.941 116.825C154.941 115.055 154.596 113.705 153.906 112.775C153.246 111.815 152.316 111.335 151.116 111.335C149.916 111.335 148.956 111.815 148.236 112.775C147.546 113.735 147.201 115.085 147.201 116.825C147.201 118.565 147.546 119.915 148.236 120.875C148.956 121.835 149.916 122.315 151.116 122.315ZM171.726 140.315C170.256 140.315 168.951 139.955 167.811 139.235C166.671 138.515 165.786 137.51 165.156 136.22C164.526 134.93 164.211 133.415 164.211 131.675C164.211 129.935 164.526 128.42 165.156 127.13C165.786 125.84 166.671 124.835 167.811 124.115C168.951 123.395 170.256 123.035 171.726 123.035C173.256 123.035 174.576 123.395 175.686 124.115C176.826 124.835 177.711 125.84 178.341 127.13C178.971 128.42 179.286 129.935 179.286 131.675C179.286 133.415 178.971 134.93 178.341 136.22C177.711 137.51 176.826 138.515 175.686 139.235C174.576 139.955 173.256 140.315 171.726 140.315ZM171.726 137.165C172.926 137.165 173.871 136.685 174.561 135.725C175.251 134.765 175.596 133.415 175.596 131.675C175.596 129.935 175.251 128.585 174.561 127.625C173.871 126.665 172.926 126.185 171.726 126.185C170.556 126.185 169.611 126.665 168.891 127.625C168.201 128.555 167.856 129.905 167.856 131.675C167.856 133.445 168.201 134.81 168.891 135.77C169.611 136.7 170.556 137.165 171.726 137.165Z" fill="#1CA8B4"/>
</svg>
